<svg width="910" height="60" viewBox="0 0 910 60" fill="none" xmlns="http://www.w3.org/2000/svg"><path fill="#ED0000" d="M0 0h910v60H0z"/><path d="M171.631 25.9876c-.03-.8714-.21-1.6226-.541-2.2536-.33-.661-.781-1.2019-1.352-1.6225-.541-.4207-1.172-.7212-1.893-.9015-.721-.2103-1.487-.3155-2.298-.3155-.631 0-1.277.0752-1.938.2254-.631.1202-1.217.3455-1.758.6761-.541.3004-.977.7061-1.307 1.2169-.331.5108-.496 1.1418-.496 1.893 0 .631.15 1.1718.451 1.6225.33.4207.736.7812 1.217 1.0817.48.3005 1.006.5559 1.577.7662.571.1803 1.097.3305 1.578.4507l3.786.8564c.811.1202 1.607.3455 2.388.6761.812.3004 1.518.7061 2.119 1.2169.631.5108 1.141 1.1418 1.532 1.8929.391.7512.586 1.6376.586 2.6592 0 1.262-.286 2.3437-.856 3.2451-.571.8714-1.307 1.5926-2.209 2.1635-.871.5408-1.863.9314-2.975 1.1718-1.111.2404-2.208.3606-3.29.3606-2.734 0-4.958-.646-6.67-1.9381-1.683-1.292-2.644-3.3653-2.885-6.2198h2.84c.12 1.9231.811 3.3803 2.073 4.3719 1.292.9615 2.884 1.4423 4.777 1.4423.692 0 1.398-.0751 2.119-.2254.751-.1502 1.442-.4056 2.073-.7662s1.142-.8113 1.532-1.3521c.421-.5709.631-1.262.631-2.0733 0-.6911-.15-1.262-.45-1.7127-.271-.4807-.646-.8713-1.127-1.1718-.481-.3305-1.037-.601-1.668-.8113-.601-.2103-1.217-.3906-1.848-.5409l-3.65-.8112c-.932-.2404-1.788-.5108-2.569-.8113-.782-.3305-1.473-.7211-2.074-1.1719-.571-.4807-1.021-1.0516-1.352-1.7126-.33-.6911-.496-1.5325-.496-2.524 0-1.1719.256-2.1785.767-3.0198.541-.8413 1.232-1.5174 2.073-2.0282.841-.5108 1.773-.8864 2.794-1.1268 1.052-.2403 2.089-.3605 3.11-.3605 1.172 0 2.254.1502 3.245.4507 1.022.3005 1.908.7662 2.66 1.3972.781.631 1.397 1.4122 1.847 2.3437.451.9315.707 2.0282.767 3.2902h-2.84zm25.26 16.4509h-2.614v-4.1916h-.09c-.751 1.5624-1.848 2.7643-3.29 3.6057-1.413.8112-2.99 1.2169-4.733 1.2169-1.472 0-2.734-.2104-3.786-.631-1.021-.3906-1.863-.9615-2.524-1.7127-.631-.7512-1.097-1.6676-1.397-2.7494-.3-1.0817-.451-2.3136-.451-3.6958V19.1818h2.84v15.1439c.06 2.1033.541 3.6958 1.442 4.7775.931 1.0817 2.524 1.6226 4.778 1.6226 1.231 0 2.283-.2554 3.155-.7662.871-.5409 1.592-1.247 2.163-2.1184.571-.8713.991-1.8629 1.262-2.9746.27-1.1418.406-2.2987.406-3.4705V19.1818h2.839v23.2567zm4.016-23.2567h2.614v3.9212h.136c.751-1.4422 1.727-2.569 2.929-3.3803 1.232-.8113 2.795-1.2169 4.688-1.2169 1.532 0 2.914.3756 4.146 1.1268 1.262.7511 2.103 1.8929 2.524 3.4254.691-1.5325 1.713-2.6743 3.065-3.4254 1.352-.7512 2.794-1.1268 4.327-1.1268 5.138 0 7.707 2.7193 7.707 8.1578v15.7749h-2.84V26.7988c0-1.923-.405-3.3803-1.217-4.3718-.811-1.0217-2.238-1.5325-4.281-1.5325-1.232 0-2.254.2404-3.065.7212-.811.4507-1.457 1.0667-1.938 1.8479-.481.7812-.826 1.6826-1.037 2.7042-.18.9916-.27 2.0282-.27 3.1099v13.1608h-2.84V26.6636c0-.7812-.09-1.5174-.27-2.2084-.15-.7212-.421-1.3372-.811-1.848-.361-.5408-.857-.9615-1.488-1.2619-.631-.3005-1.397-.4508-2.298-.4508-1.202 0-2.254.2254-3.155.6761-.872.4207-1.593 1.0216-2.164 1.8028-.541.7512-.946 1.6527-1.217 2.7043-.27 1.0216-.405 2.1484-.405 3.3803v12.9805h-2.84V19.1818zm36.193 0h2.614v3.9212h.135c.751-1.4422 1.728-2.569 2.93-3.3803 1.232-.8113 2.794-1.2169 4.687-1.2169 1.532 0 2.915.3756 4.146 1.1268 1.262.7511 2.104 1.8929 2.524 3.4254.692-1.5325 1.713-2.6743 3.065-3.4254 1.352-.7512 2.795-1.1268 4.327-1.1268 5.138 0 7.707 2.7193 7.707 8.1578v15.7749h-2.839V26.7988c0-1.923-.406-3.3803-1.217-4.3718-.811-1.0217-2.239-1.5325-4.282-1.5325-1.232 0-2.253.2404-3.065.7212-.811.4507-1.457 1.0667-1.938 1.8479-.481.7812-.826 1.6826-1.036 2.7042-.181.9916-.271 2.0282-.271 3.1099v13.1608h-2.839V26.6636c0-.7812-.09-1.5174-.271-2.2084-.15-.7212-.42-1.3372-.811-1.848-.361-.5408-.856-.9615-1.487-1.2619-.631-.3005-1.398-.4508-2.299-.4508-1.202 0-2.254.2254-3.155.6761-.871.4207-1.592 1.0216-2.163 1.8028-.541.7512-.947 1.6527-1.217 2.7043-.271 1.0216-.406 2.1484-.406 3.3803v12.9805H237.1V19.1818zm52.913 10.0058c-.03-1.0817-.225-2.1183-.586-3.1099-.33-.9916-.811-1.8629-1.442-2.6141-.631-.7812-1.397-1.3972-2.299-1.8479-.901-.4808-1.923-.7212-3.064-.7212-1.172 0-2.209.2404-3.11.7212-.902.4507-1.668 1.0667-2.299 1.8479-.631.7512-1.142 1.6376-1.532 2.6592-.361.9915-.601 2.0131-.721 3.0648h15.053zm-15.053 2.3888c0 1.0216.135 2.0883.405 3.2.301 1.0817.766 2.0583 1.397 2.9296.631.8714 1.428 1.5925 2.389 2.1634.962.5709 2.119.8564 3.471.8564 2.073 0 3.695-.5409 4.867-1.6226 1.172-1.0817 1.983-2.524 2.434-4.3268h2.84c-.601 2.6442-1.713 4.6874-3.336 6.1297-1.592 1.4422-3.861 2.1634-6.805 2.1634-1.833 0-3.426-.3155-4.778-.9465-1.322-.6611-2.404-1.5475-3.245-2.6592-.841-1.1418-1.472-2.4489-1.893-3.9212-.391-1.5024-.586-3.0798-.586-4.7324 0-1.5325.195-3.0348.586-4.5071.421-1.4724 1.052-2.7794 1.893-3.9212.841-1.1719 1.923-2.1033 3.245-2.7944 1.352-.7212 2.945-1.0817 4.778-1.0817 1.863 0 3.455.3756 4.777 1.1268 1.322.7511 2.389 1.7427 3.2 2.9746.842 1.2019 1.443 2.5991 1.803 4.1916.361 1.5625.511 3.155.451 4.7776H274.96zm20.352-12.3946h2.614v5.4536h.09c.721-1.8929 1.833-3.3502 3.335-4.3718 1.533-1.0217 3.35-1.4874 5.454-1.3973v2.8395c-1.292-.0601-2.464.1202-3.516.5409-1.051.3906-1.968.9615-2.749 1.7127-.751.7512-1.337 1.6526-1.758 2.7042-.421 1.0216-.631 2.1484-.631 3.3804v12.3945h-2.839V19.1818zm23.786-8.924h6.4v12.1241h.135c.811-1.3521 1.848-2.3287 3.11-2.9296 1.262-.631 2.494-.9465 3.696-.9465 1.713 0 3.11.2404 4.191.7211 1.112.4507 1.984 1.0967 2.615 1.9381.631.8112 1.066 1.8178 1.307 3.0197.27 1.1719.405 2.4789.405 3.9212v14.3326h-6.4V29.2777c0-1.923-.3-3.3502-.901-4.2817-.601-.9615-1.668-1.4423-3.2-1.4423-1.743 0-3.005.5259-3.786 1.5775-.781 1.0216-1.172 2.7193-1.172 5.093v12.2143h-6.4V10.2578zm31.044 20.5524c0 .9314.09 1.8479.27 2.7493.18.8714.481 1.6676.901 2.3888.451.691 1.037 1.2469 1.758 1.6676.721.4206 1.623.631 2.704.631 1.082 0 1.984-.2104 2.705-.631.751-.4207 1.337-.9766 1.757-1.6676.451-.7212.767-1.5174.947-2.3888.18-.9014.27-1.8179.27-2.7493 0-.9315-.09-1.8479-.27-2.7494-.18-.9014-.496-1.6976-.947-2.3887-.42-.6911-1.006-1.247-1.757-1.6677-.721-.4507-1.623-.676-2.705-.676-1.081 0-1.983.2253-2.704.676-.721.4207-1.307.9766-1.758 1.6677-.42.6911-.721 1.4873-.901 2.3887-.18.9015-.27 1.8179-.27 2.7494zm-6.401 0c0-1.863.286-3.5456.857-5.048.571-1.5324 1.382-2.8244 2.434-3.8761 1.051-1.0817 2.313-1.908 3.786-2.4789 1.472-.6009 3.125-.9014 4.957-.9014 1.833 0 3.486.3005 4.958.9014 1.503.5709 2.78 1.3972 3.831 2.4789 1.052 1.0517 1.863 2.3437 2.434 3.8761.571 1.5024.856 3.185.856 5.048 0 1.8629-.285 3.5455-.856 5.0479-.571 1.5024-1.382 2.7944-2.434 3.8761-1.051 1.0517-2.328 1.863-3.831 2.4339-1.472.5708-3.125.8563-4.958.8563-1.832 0-3.485-.2855-4.957-.8563-1.473-.5709-2.735-1.3822-3.786-2.4339-1.052-1.0817-1.863-2.3737-2.434-3.8761-.571-1.5024-.857-3.185-.857-5.0479zm27.103-11.6734h6.039v3.1549h.091c.841-1.2018 1.847-2.1333 3.019-2.7944 1.202-.661 2.569-.9915 4.102-.9915 1.472 0 2.809.2854 4.011.8563 1.232.5709 2.163 1.5775 2.794 3.0198.692-1.0216 1.623-1.923 2.795-2.7043 1.202-.7812 2.614-1.1718 4.237-1.1718 1.232 0 2.373.1502 3.425.4507 1.052.3005 1.953.7812 2.704 1.4423.751.661 1.337 1.5324 1.758 2.6141.421 1.0516.631 2.3286.631 3.831v15.5946h-6.4V29.2327c0-.7813-.03-1.5174-.09-2.2085-.06-.6911-.226-1.292-.496-1.8028-.27-.5108-.676-.9165-1.217-1.217-.511-.3004-1.217-.4507-2.118-.4507-.902 0-1.638.1803-2.209.5409-.541.3305-.976.7812-1.307 1.3521-.3.5409-.511 1.1719-.631 1.893-.09.6911-.135 1.3972-.135 2.1183v12.9805h-6.4V29.3679c0-.6911-.015-1.3672-.045-2.0282-.03-.6911-.165-1.3221-.406-1.893-.21-.5709-.586-1.0216-1.127-1.3521-.51-.3606-1.277-.5409-2.298-.5409-.301 0-.706.0751-1.217.2254-.481.1202-.962.3756-1.442.7662-.451.3606-.842.9014-1.172 1.6225-.331.6911-.496 1.6076-.496 2.7494v13.5213h-6.4V19.1368zm54.998 9.1494c-.301-1.6226-.842-2.8545-1.623-3.6958-.751-.8414-1.908-1.262-3.47-1.262-1.022 0-1.878.1803-2.569.5408-.661.3305-1.202.7512-1.623 1.262-.39.5108-.676 1.0517-.856 1.6226-.15.5709-.241 1.0817-.271 1.5324h10.412zm-10.412 4.0564c.091 2.0732.616 3.5756 1.578 4.5071.961.9314 2.344 1.3972 4.146 1.3972 1.292 0 2.404-.3155 3.336-.9465.931-.6611 1.502-1.3521 1.712-2.0733h5.634c-.901 2.7944-2.283 4.7926-4.146 5.9945-1.863 1.2019-4.117 1.8028-6.761 1.8028-1.833 0-3.485-.2855-4.958-.8563-1.472-.601-2.719-1.4423-3.741-2.524-1.021-1.0817-1.818-2.3738-2.388-3.8761-.541-1.5024-.812-3.155-.812-4.9578 0-1.7428.286-3.3653.857-4.8677.571-1.5024 1.382-2.7944 2.433-3.8761 1.052-1.1118 2.299-1.9831 3.741-2.6141 1.473-.631 3.095-.9465 4.868-.9465 1.983 0 3.711.3906 5.183 1.1718 1.473.7512 2.674 1.7728 3.606 3.0649.961 1.292 1.652 2.7643 2.073 4.4169.421 1.6526.571 3.3803.451 5.1832H415.43zm35.405 2.524c0 .691.136 1.292.406 1.8028.301.4807.676.8864 1.127 1.2169.451.3005.961.5258 1.532.6761.601.1502 1.217.2253 1.848.2253.451 0 .917-.045 1.397-.1352.511-.1202.962-.2854 1.352-.4958.421-.2403.767-.5408 1.037-.9014.271-.3906.406-.8714.406-1.4423 0-.9615-.646-1.6826-1.938-2.1634-1.262-.4807-3.035-.9615-5.319-1.4422-.931-.2104-1.848-.4507-2.749-.7212-.871-.3004-1.653-.676-2.344-1.1267-.691-.4808-1.247-1.0667-1.667-1.7578-.421-.7212-.631-1.5925-.631-2.6141 0-1.5024.285-2.7343.856-3.6959.601-.9615 1.382-1.7127 2.344-2.2535.961-.5709 2.043-.9615 3.245-1.1719 1.202-.2403 2.434-.3605 3.696-.3605s2.479.1202 3.65.3605c1.202.2404 2.269.6461 3.2 1.217.932.5709 1.698 1.3371 2.299 2.2986.631.9315 1.007 2.1183 1.127 3.5606h-6.085c-.09-1.2319-.556-2.0582-1.397-2.4789-.841-.4507-1.833-.6761-2.975-.6761-.36 0-.751.0301-1.171.0902-.421.03-.812.1202-1.172.2704-.331.1502-.616.3756-.857.6761-.24.2704-.36.646-.36 1.1267 0 .5709.21 1.0367.631 1.3972.42.3606.961.6611 1.622.9015.691.2103 1.473.4056 2.344.5859.871.1803 1.758.3756 2.659.5859.932.2103 1.833.4657 2.704.7662.902.3005 1.698.7061 2.389 1.2169.691.4808 1.247 1.0967 1.668 1.8479.42.7212.631 1.6226.631 2.7043 0 1.5324-.316 2.8244-.947 3.8761-.601 1.0216-1.397 1.8479-2.388 2.4789-.992.631-2.134 1.0667-3.426 1.3071-1.262.2704-2.554.4056-3.876.4056-1.352 0-2.674-.1352-3.966-.4056-1.292-.2705-2.449-.7212-3.471-1.3522-.991-.631-1.818-1.4573-2.479-2.4789-.631-1.0516-.976-2.3587-1.036-3.9211h6.084zm17.628-8.5635c.09-1.5024.466-2.7494 1.127-3.7409.661-.9916 1.502-1.7878 2.524-2.3888 1.021-.6009 2.163-1.0216 3.425-1.262 1.292-.2704 2.584-.4056 3.876-.4056 1.172 0 2.359.0901 3.561.2704 1.202.1502 2.299.4657 3.29.9465.992.4808 1.803 1.1568 2.434 2.0282.631.8413.946 1.9681.946 3.3803v12.1241c0 1.0517.061 2.0583.181 3.0198s.33 1.6826.631 2.1634h-6.49c-.121-.3606-.226-.7212-.316-1.0817-.06-.3906-.105-.7813-.135-1.1719-1.022 1.0517-2.224 1.7878-3.606 2.2085-1.382.4207-2.794.631-4.237.631-1.111 0-2.148-.1352-3.109-.4056-.962-.2705-1.803-.6911-2.524-1.262-.722-.5709-1.292-1.2921-1.713-2.1634-.391-.8714-.586-1.908-.586-3.1099 0-1.3221.225-2.4038.676-3.2451.481-.8714 1.082-1.5625 1.803-2.0733.751-.5108 1.592-.8864 2.524-1.1268.961-.2704 1.923-.4807 2.884-.631.962-.1502 1.908-.2704 2.84-.3605.931-.0902 1.758-.2254 2.479-.4057.721-.1803 1.292-.4357 1.712-.7662.421-.3606.616-.8714.586-1.5324 0-.6911-.12-1.2319-.36-1.6226-.211-.4206-.511-.7361-.902-.9465-.36-.2403-.796-.3906-1.307-.4507-.48-.0901-1.006-.1352-1.577-.1352-1.262 0-2.254.2705-2.975.8113-.721.5409-1.142 1.4423-1.262 2.7043h-6.4zm14.783 4.7324c-.27.2404-.616.4357-1.036.5859-.391.1202-.827.2254-1.307.3155-.451.0902-.932.1653-1.443.2254-.51.0601-1.021.1352-1.532.2253-.481.0902-.962.2104-1.442.3606-.451.1503-.857.3606-1.217.631-.331.2404-.601.5559-.811.9465-.211.3906-.316.8864-.316 1.4873 0 .5709.105 1.0517.316 1.4423.21.3906.495.7061.856.9465.36.2103.781.3606 1.262.4507.481.0902.976.1352 1.487.1352 1.262 0 2.239-.2103 2.93-.631.691-.4206 1.202-.9164 1.532-1.4873.331-.601.526-1.2019.586-1.8028.09-.601.135-1.0818.135-1.4423v-2.3888zm22.906 11.403h-7.121l-7.977-23.3017h6.715l4.913 15.91h.09l4.913-15.91h6.355l-7.888 23.3017zm15.754-26.9074h-6.4v-5.2733h6.4v5.2733zm-6.4 3.6057h6.4v23.3017h-6.4V19.1368zm10.087 0h6.085v3.2451h.135c.811-1.3521 1.863-2.3287 3.155-2.9296 1.292-.631 2.614-.9465 3.966-.9465 1.713 0 3.11.2404 4.192.7211 1.112.4507 1.983 1.0967 2.614 1.9381.631.8112 1.067 1.8178 1.307 3.0197.271 1.1719.406 2.4789.406 3.9212v14.3326h-6.4V29.2777c0-1.923-.301-3.3502-.902-4.2817-.601-.9615-1.667-1.4423-3.2-1.4423-1.742 0-3.004.5259-3.786 1.5775-.781 1.0216-1.172 2.7193-1.172 5.093v12.2143h-6.4V19.1368zm36.227 17.803c.902 0 1.698-.1803 2.389-.5408.691-.3606 1.262-.8414 1.713-1.4423.45-.601.781-1.277.991-2.0282.241-.7812.361-1.5925.361-2.4338 0-.9616-.09-1.863-.271-2.7043-.18-.8714-.48-1.6376-.901-2.2986-.421-.6611-.977-1.1869-1.668-1.5775-.691-.3906-1.562-.5859-2.614-.5859-.901 0-1.682.1803-2.343.5408-.631.3606-1.172.8564-1.623 1.4874-.421.6009-.736 1.307-.947 2.1183-.18.7812-.27 1.6075-.27 2.4789 0 .8413.075 1.6827.225 2.524.181.8113.466 1.5474.857 2.2085.42.661.961 1.2019 1.622 1.6225.661.4207 1.488.631 2.479.631zm11.538 4.0113c0 .9315-.135 1.9982-.405 3.2001-.241 1.2019-.781 2.3136-1.623 3.3352-.841 1.0517-2.058 1.9381-3.651 2.6592-1.592.7212-3.725 1.0817-6.4 1.0817-1.141 0-2.313-.1502-3.515-.4507-1.172-.2704-2.254-.7061-3.245-1.307-.962-.601-1.773-1.3822-2.434-2.3437-.631-.9315-.992-2.0583-1.082-3.3804h6.355c.301 1.2019.887 2.0282 1.758 2.4789.871.4808 1.878.7212 3.02.7212 1.803 0 3.11-.5409 3.921-1.6226.841-1.0817 1.247-2.4488 1.217-4.1014v-3.0649h-.09c-.691 1.232-1.683 2.1484-2.975 2.7494-1.262.5709-2.599.8563-4.011.8563-1.743 0-3.245-.3005-4.507-.9014-1.262-.631-2.299-1.4723-3.11-2.524-.812-1.0817-1.413-2.3287-1.803-3.7409-.361-1.4422-.541-2.9596-.541-4.5521 0-1.5024.21-2.9447.631-4.3269.451-1.4122 1.097-2.6441 1.938-3.6958.841-1.0817 1.878-1.938 3.11-2.569 1.262-.631 2.704-.9465 4.327-.9465 1.532 0 2.869.2854 4.011.8563 1.172.5709 2.148 1.5324 2.93 2.8846h.09v-3.1099h6.084v21.8143zm8.759-6.0845c0 .691.135 1.292.406 1.8028.3.4807.676.8864 1.126 1.2169.451.3005.962.5258 1.533.6761.601.1502 1.217.2253 1.848.2253.45 0 .916-.045 1.397-.1352.511-.1202.961-.2854 1.352-.4958.421-.2403.766-.5408 1.037-.9014.27-.3906.405-.8714.405-1.4423 0-.9615-.646-1.6826-1.938-2.1634-1.262-.4807-3.035-.9615-5.318-1.4422-.932-.2104-1.848-.4507-2.749-.7212-.872-.3004-1.653-.676-2.344-1.1267-.691-.4808-1.247-1.0667-1.668-1.7578-.42-.7212-.631-1.5925-.631-2.6141 0-1.5024.286-2.7343.857-3.6959.601-.9615 1.382-1.7127 2.343-2.2535.962-.5709 2.044-.9615 3.245-1.1719 1.202-.2403 2.434-.3605 3.696-.3605s2.479.1202 3.651.3605c1.202.2404 2.269.6461 3.2 1.217.931.5709 1.698 1.3371 2.299 2.2986.631.9315 1.006 2.1183 1.126 3.5606h-6.084c-.09-1.2319-.556-2.0582-1.397-2.4789-.842-.4507-1.833-.6761-2.975-.6761-.361 0-.751.0301-1.172.0902-.421.03-.811.1202-1.172.2704-.33.1502-.616.3756-.856.6761-.24.2704-.361.646-.361 1.1267 0 .5709.211 1.0367.631 1.3972.421.3606.962.6611 1.623.9015.691.2103 1.472.4056 2.344.5859.871.1803 1.757.3756 2.659.5859.931.2103 1.833.4657 2.704.7662.901.3005 1.698.7061 2.389 1.2169.691.4808 1.247 1.0967 1.667 1.8479.421.7212.631 1.6226.631 2.7043 0 1.5324-.315 2.8244-.946 3.8761-.601 1.0216-1.397 1.8479-2.389 2.4789-.991.631-2.133 1.0667-3.425 1.3071-1.262.2704-2.554.4056-3.876.4056-1.352 0-2.675-.1352-3.967-.4056-1.292-.2705-2.448-.7212-3.47-1.3522-.992-.631-1.818-1.4573-2.479-2.4789-.631-1.0516-.977-2.3587-1.037-3.9211h6.085z" fill="#fff"/><g filter="url(#filter0_d_208_11461)"><rect x="645" y="14" width="109.534" height="31.5" rx="2.625" fill="#fff"/><path d="M674.87 27.9109h1.192c-.018-.5206-.119-.9663-.305-1.3369-.176-.3795-.423-.6928-.741-.9399-.309-.2471-.671-.428-1.085-.5427-.415-.1147-.865-.1721-1.351-.1721-.432 0-.856.0574-1.27.1721-.406.1059-.773.2736-1.099.503-.318.2206-.574.5074-.768.8604-.194.3442-.291.7545-.291 1.2311 0 .4324.084.7942.251 1.0854.177.2824.406.5163.689.7016.291.1765.617.3221.979.4368.362.1059.728.203 1.099.2913.379.0794.75.1588 1.112.2382.362.0794.684.1853.966.3177.291.1236.521.2868.689.4898.176.203.264.4677.264.7942 0 .3442-.07.6266-.211.8472-.142.2206-.327.3971-.556.5295-.23.1235-.49.2118-.781.2647-.283.053-.565.0795-.848.0795-.353 0-.697-.0442-1.032-.1324-.335-.0883-.631-.225-.887-.4104-.247-.1853-.45-.4191-.609-.7015-.15-.2913-.225-.6354-.225-1.0325h-1.191c0 .5736.101 1.0722.304 1.4958.212.4147.494.7589.847 1.0325.362.2647.777.4633 1.245.5956.476.1324.979.1986 1.509.1986.432 0 .864-.053 1.297-.1588.441-.0971.838-.256 1.191-.4766.353-.2294.64-.5207.861-.8736.229-.3619.344-.7943.344-1.2973 0-.4677-.088-.856-.265-1.1649-.168-.3088-.397-.5648-.688-.7677-.283-.203-.605-.3618-.967-.4766-.361-.1235-.732-.2294-1.111-.3177-.371-.0882-.737-.1676-1.099-.2382-.362-.0794-.688-.1765-.98-.2912-.282-.1148-.512-.2604-.688-.4369-.168-.1853-.252-.4236-.252-.7148 0-.3088.058-.5648.173-.7677.123-.2118.282-.3795.476-.503.203-.1236.432-.2118.688-.2648.256-.0529.517-.0794.781-.0794.653 0 1.187.1544 1.602.4633.424.3.671.7898.741 1.4693zm2.932-2.7666v9.4514h1.125v-3.8653c0-.3088.039-.5912.119-.8471.088-.2648.216-.4942.384-.6884.167-.1941.375-.3441.622-.45.256-.1059.556-.1589.9-.1589.432 0 .772.1236 1.019.3707.247.247.371.5824.371 1.006v4.633h1.125v-4.5006c0-.3707-.04-.706-.119-1.0061-.071-.3088-.199-.5736-.384-.7942-.185-.2206-.428-.3927-.728-.5163-.3-.1235-.675-.1853-1.125-.1853-.203 0-.415.0221-.635.0662-.212.0441-.42.1147-.623.2118-.194.0883-.37.2074-.529.3574-.159.1412-.283.3177-.371.5295h-.026v-3.6138h-1.125zm8.176 6.0362c0-.4148.053-.781.159-1.0987.114-.3265.269-.6001.463-.8207.194-.2206.419-.3883.675-.503.265-.1147.543-.1721.834-.1721.291 0 .565.0574.821.1721.264.1147.494.2824.688.503.194.2206.344.4942.45.8207.115.3177.172.6839.172 1.0987 0 .4148-.057.7854-.172 1.1119-.106.3177-.256.5869-.45.8075-.194.2118-.424.3751-.688.4898-.256.1147-.53.1721-.821.1721-.291 0-.569-.0574-.834-.1721-.256-.1147-.481-.278-.675-.4898-.194-.2206-.349-.4898-.463-.8075-.106-.3265-.159-.6971-.159-1.1119zm-1.192 0c0 .503.071.9707.212 1.4031.141.4325.353.8119.636 1.1384.282.3177.631.5692 1.045.7546.415.1765.892.2647 1.43.2647.547 0 1.024-.0882 1.43-.2647.414-.1854.763-.4369 1.045-.7546.283-.3265.494-.7059.636-1.1384.141-.4324.211-.9001.211-1.4031s-.07-.9707-.211-1.4031c-.142-.4413-.353-.8207-.636-1.1384-.282-.3266-.631-.5825-1.045-.7678-.406-.1853-.883-.278-1.43-.278-.538 0-1.015.0927-1.43.278-.414.1853-.763.4412-1.045.7678-.283.3177-.495.6971-.636 1.1384-.141.4324-.212.9001-.212 1.4031zm8.012-3.4284v9.4513h1.125v-3.5211h.026c.124.203.274.3751.45.5163.186.1324.38.2383.583.3177.203.0794.406.1368.609.1721.212.0353.401.0529.569.0529.521 0 .975-.0926 1.363-.278.398-.1853.724-.4368.98-.7545.265-.3265.459-.706.582-1.1384.133-.4324.199-.8913.199-1.3767 0-.4853-.066-.9442-.199-1.3766-.132-.4324-.33-.8119-.595-1.1384-.256-.3354-.583-.6001-.98-.7943-.388-.1941-.847-.2912-1.376-.2912-.477 0-.914.0883-1.311.2648-.397.1676-.688.4412-.874.8207h-.026v-.9266h-1.125zm5.295 3.3622c0 .3354-.036.6619-.106.9796-.071.3177-.186.6001-.344.8472-.159.247-.371.4456-.636.5956-.256.15-.578.2251-.966.2251s-.719-.0706-.993-.2118c-.273-.1501-.498-.3442-.675-.5825-.168-.2382-.291-.5118-.371-.8207-.079-.3177-.119-.6442-.119-.9795 0-.3177.036-.631.106-.9399.08-.3088.203-.5824.371-.8207.167-.2471.384-.4456.648-.5957.265-.15.587-.225.967-.225.362 0 .675.0706.94.2118.273.1412.494.3309.661.5692.177.2383.305.5118.384.8207.089.3001.133.6089.133.9266zm6.368-5.97v9.4514h1.191v-7.5849h.027l4.937 7.5849h1.377v-9.4514h-1.191v7.6644h-.027l-4.977-7.6644h-1.337zm10.202 6.0362c0-.4148.053-.781.159-1.0987.114-.3265.269-.6001.463-.8207.194-.2206.419-.3883.675-.503.265-.1147.543-.1721.834-.1721.291 0 .565.0574.821.1721.264.1147.494.2824.688.503.194.2206.344.4942.45.8207.115.3177.172.6839.172 1.0987 0 .4148-.057.7854-.172 1.1119-.106.3177-.256.5869-.45.8075-.194.2118-.424.3751-.688.4898-.256.1147-.53.1721-.821.1721-.291 0-.569-.0574-.834-.1721-.256-.1147-.481-.278-.675-.4898-.194-.2206-.349-.4898-.463-.8075-.106-.3265-.159-.6971-.159-1.1119zm-1.192 0c0 .503.071.9707.212 1.4031.141.4325.353.8119.635 1.1384.283.3177.631.5692 1.046.7546.415.1765.892.2647 1.43.2647.547 0 1.024-.0882 1.429-.2647.415-.1854.764-.4369 1.046-.7546.283-.3265.494-.7059.636-1.1384.141-.4324.211-.9001.211-1.4031s-.07-.9707-.211-1.4031c-.142-.4413-.353-.8207-.636-1.1384-.282-.3266-.631-.5825-1.046-.7678-.405-.1853-.882-.278-1.429-.278-.538 0-1.015.0927-1.43.278-.415.1853-.763.4412-1.046.7678-.282.3177-.494.6971-.635 1.1384-.141.4324-.212.9001-.212 1.4031zm14.749 3.4152l2.185-6.8436h-1.165l-1.536 5.5993h-.026l-1.43-5.5993h-1.231l-1.377 5.5993h-.026l-1.549-5.5993h-1.244l2.197 6.8436h1.218l1.377-5.4405h.026l1.39 5.4405h1.191z" fill="#252525"/></g><defs><filter id="filter0_d_208_11461" x="645" y="14" width="109.534" height="32.8404" filterUnits="userSpaceOnUse" color-interpolation-filters="sRGB"><feFlood flood-opacity="0" result="BackgroundImageFix"/><feColorMatrix in="SourceAlpha" values="0 0 0 0 0 0 0 0 0 0 0 0 0 0 0 0 0 0 127 0" result="hardAlpha"/><feOffset dy="1.34043"/><feColorMatrix values="0 0 0 0 0.329412 0 0 0 0 0.337255 0 0 0 0 0.345098 0 0 0 0.2 0"/><feBlend mode="multiply" in2="BackgroundImageFix" result="effect1_dropShadow_208_11461"/><feBlend in="SourceGraphic" in2="effect1_dropShadow_208_11461" result="shape"/></filter></defs></svg>