<svg width="1400" height="550" viewBox="0 0 1400 550" fill="none" xmlns="http://www.w3.org/2000/svg">
<path d="M134.951 88.1913C134.909 86.9832 134.659 85.9417 134.201 85.0669C133.743 84.1503 133.118 83.4005 132.326 82.8172C131.576 82.234 130.701 81.8174 129.702 81.5674C128.702 81.2758 127.639 81.13 126.515 81.13C125.64 81.13 124.744 81.2342 123.828 81.4425C122.953 81.6091 122.14 81.9215 121.39 82.3798C120.641 82.7964 120.037 83.3588 119.578 84.067C119.12 84.7752 118.891 85.6501 118.891 86.6916C118.891 87.5664 119.099 88.3163 119.516 88.9412C119.974 89.5244 120.536 90.0244 121.203 90.4409C121.87 90.8575 122.599 91.2117 123.39 91.5033C124.182 91.7532 124.911 91.9615 125.577 92.1282L130.826 93.3155C131.951 93.4821 133.055 93.7946 134.138 94.2528C135.263 94.6694 136.242 95.2318 137.075 95.94C137.95 96.6482 138.658 97.5231 139.2 98.5646C139.742 99.6061 140.012 100.835 140.012 102.251C140.012 104.001 139.617 105.501 138.825 106.751C138.034 107.959 137.013 108.959 135.763 109.75C134.555 110.5 133.18 111.042 131.639 111.375C130.097 111.708 128.577 111.875 127.077 111.875C123.286 111.875 120.203 110.979 117.829 109.188C115.496 107.396 114.163 104.522 113.829 100.564H117.766C117.933 103.23 118.891 105.251 120.641 106.626C122.432 107.959 124.64 108.625 127.265 108.625C128.223 108.625 129.202 108.521 130.202 108.313C131.243 108.105 132.201 107.751 133.076 107.251C133.951 106.751 134.659 106.126 135.201 105.376C135.784 104.584 136.076 103.626 136.076 102.501C136.076 101.543 135.867 100.752 135.451 100.127C135.076 99.4603 134.555 98.9187 133.888 98.5021C133.222 98.0438 132.451 97.6689 131.576 97.3773C130.743 97.0857 129.889 96.8357 129.014 96.6274L123.953 95.5026C122.661 95.1693 121.474 94.7944 120.391 94.3778C119.308 93.9195 118.349 93.378 117.516 92.7531C116.725 92.0865 116.1 91.295 115.641 90.3785C115.183 89.4203 114.954 88.2538 114.954 86.879C114.954 85.2543 115.308 83.8587 116.016 82.6922C116.766 81.5258 117.724 80.5884 118.891 79.8802C120.057 79.172 121.349 78.6513 122.765 78.318C124.223 77.9847 125.661 77.8181 127.077 77.8181C128.702 77.8181 130.202 78.0264 131.576 78.443C132.993 78.8596 134.222 79.5053 135.263 80.3801C136.346 81.255 137.2 82.3381 137.825 83.6296C138.45 84.921 138.804 86.4416 138.888 88.1913H134.951ZM169.973 111H166.348V105.188H166.223C165.182 107.355 163.661 109.021 161.662 110.188C159.704 111.312 157.516 111.875 155.1 111.875C153.059 111.875 151.309 111.583 149.851 111C148.435 110.458 147.268 109.667 146.352 108.625C145.477 107.584 144.831 106.313 144.414 104.814C143.998 103.314 143.79 101.606 143.79 99.6894V78.7554H147.726V99.7519C147.81 102.668 148.476 104.876 149.726 106.376C151.018 107.876 153.225 108.625 156.35 108.625C158.058 108.625 159.516 108.271 160.724 107.563C161.932 106.813 162.932 105.834 163.724 104.626C164.515 103.418 165.098 102.043 165.473 100.502C165.848 98.9187 166.036 97.3148 166.036 95.6901V78.7554H169.973V111ZM175.541 78.7554H179.165V84.192H179.353C180.394 82.1923 181.748 80.6301 183.415 79.5053C185.123 78.3805 187.289 77.8181 189.914 77.8181C192.038 77.8181 193.955 78.3388 195.663 79.3803C197.412 80.4218 198.579 82.0049 199.162 84.1295C200.12 82.0049 201.537 80.4218 203.411 79.3803C205.286 78.3388 207.286 77.8181 209.41 77.8181C216.534 77.8181 220.096 81.5883 220.096 89.1287V111H216.159V89.3161C216.159 86.6499 215.597 84.6294 214.472 83.2547C213.347 81.8382 211.368 81.13 208.536 81.13C206.827 81.13 205.411 81.4633 204.286 82.1298C203.161 82.7547 202.266 83.6088 201.599 84.6919C200.933 85.7751 200.454 87.0249 200.162 88.4413C199.912 89.8161 199.787 91.2533 199.787 92.7531V111H195.85V89.1287C195.85 88.0455 195.725 87.0249 195.475 86.0667C195.267 85.0669 194.892 84.2128 194.35 83.5046C193.851 82.7547 193.163 82.1715 192.288 81.7549C191.413 81.3383 190.351 81.13 189.101 81.13C187.435 81.13 185.977 81.4425 184.727 82.0674C183.519 82.6506 182.519 83.4838 181.728 84.5669C180.978 85.6084 180.415 86.8582 180.04 88.3163C179.665 89.7327 179.478 91.295 179.478 93.003V111H175.541V78.7554ZM225.721 78.7554H229.345V84.192H229.532C230.574 82.1923 231.928 80.6301 233.594 79.5053C235.302 78.3805 237.469 77.8181 240.093 77.8181C242.218 77.8181 244.134 78.3388 245.842 79.3803C247.592 80.4218 248.758 82.0049 249.342 84.1295C250.3 82.0049 251.716 80.4218 253.591 79.3803C255.466 78.3388 257.465 77.8181 259.59 77.8181C266.714 77.8181 270.276 81.5883 270.276 89.1287V111H266.339V89.3161C266.339 86.6499 265.776 84.6294 264.652 83.2547C263.527 81.8382 261.548 81.13 258.715 81.13C257.007 81.13 255.591 81.4633 254.466 82.1298C253.341 82.7547 252.445 83.6088 251.779 84.6919C251.112 85.7751 250.633 87.0249 250.342 88.4413C250.092 89.8161 249.967 91.2533 249.967 92.7531V111H246.03V89.1287C246.03 88.0455 245.905 87.0249 245.655 86.0667C245.446 85.0669 245.072 84.2128 244.53 83.5046C244.03 82.7547 243.343 82.1715 242.468 81.7549C241.593 81.3383 240.531 81.13 239.281 81.13C237.614 81.13 236.156 81.4425 234.907 82.0674C233.698 82.6506 232.699 83.4838 231.907 84.5669C231.157 85.6084 230.595 86.8582 230.22 88.3163C229.845 89.7327 229.657 91.295 229.657 93.003V111H225.721V78.7554ZM299.084 92.6281C299.042 91.1283 298.771 89.6911 298.271 88.3163C297.813 86.9415 297.147 85.7334 296.272 84.6919C295.397 83.6088 294.335 82.7547 293.085 82.1298C291.835 81.4633 290.419 81.13 288.836 81.13C287.211 81.13 285.774 81.4633 284.524 82.1298C283.274 82.7547 282.212 83.6088 281.337 84.6919C280.462 85.7334 279.754 86.9624 279.212 88.3788C278.712 89.7536 278.379 91.17 278.212 92.6281H299.084ZM278.212 95.94C278.212 97.3565 278.4 98.8354 278.775 100.377C279.191 101.877 279.837 103.23 280.712 104.439C281.587 105.647 282.691 106.647 284.024 107.438C285.357 108.23 286.961 108.625 288.836 108.625C291.71 108.625 293.96 107.876 295.584 106.376C297.209 104.876 298.334 102.876 298.959 100.377H302.896C302.062 104.043 300.521 106.876 298.271 108.875C296.063 110.875 292.918 111.875 288.836 111.875C286.294 111.875 284.086 111.437 282.212 110.563C280.379 109.646 278.879 108.417 277.712 106.876C276.546 105.293 275.671 103.48 275.088 101.439C274.546 99.3561 274.275 97.169 274.275 94.8777C274.275 92.7531 274.546 90.6701 275.088 88.6288C275.671 86.5874 276.546 84.7752 277.712 83.1922C278.879 81.5674 280.379 80.276 282.212 79.3178C284.086 78.318 286.294 77.8181 288.836 77.8181C291.418 77.8181 293.626 78.3388 295.459 79.3803C297.292 80.4218 298.771 81.7966 299.896 83.5046C301.063 85.171 301.896 87.1082 302.396 89.3161C302.896 91.4824 303.104 93.6904 303.021 95.94H278.212ZM306.43 78.7554H310.054V86.3166H310.179C311.179 83.6921 312.72 81.6716 314.803 80.2552C316.928 78.8387 319.448 78.193 322.365 78.318V82.2548C320.573 82.1715 318.948 82.4215 317.49 83.0047C316.032 83.5463 314.762 84.3378 313.679 85.3793C312.637 86.4208 311.825 87.6706 311.241 89.1287C310.658 90.5451 310.367 92.1073 310.367 93.8154V111H306.43V78.7554Z" fill="white"/>
<path d="M71.3204 122.962H87.9406V154.447H88.2917C90.3985 150.935 93.0905 148.399 96.3678 146.839C99.645 145.2 102.844 144.381 105.965 144.381C110.413 144.381 114.041 145.005 116.85 146.254C119.738 147.424 122 149.102 123.639 151.287C125.278 153.393 126.409 156.007 127.033 159.128C127.736 162.172 128.087 165.566 128.087 169.311V206.531H111.466V172.354C111.466 167.361 110.686 163.654 109.126 161.235C107.565 158.738 104.795 157.49 100.815 157.49C96.2897 157.49 93.0125 158.855 90.9837 161.586C88.955 164.239 87.9406 168.648 87.9406 174.812V206.531H71.3204V122.962ZM151.937 176.334C151.937 178.753 152.171 181.133 152.639 183.474C153.108 185.736 153.888 187.804 154.98 189.677C156.151 191.472 157.672 192.915 159.545 194.008C161.418 195.1 163.759 195.646 166.568 195.646C169.377 195.646 171.717 195.1 173.59 194.008C175.541 192.915 177.062 191.472 178.155 189.677C179.325 187.804 180.145 185.736 180.613 183.474C181.081 181.133 181.315 178.753 181.315 176.334C181.315 173.915 181.081 171.535 180.613 169.194C180.145 166.853 179.325 164.786 178.155 162.991C177.062 161.196 175.541 159.753 173.59 158.66C171.717 157.49 169.377 156.905 166.568 156.905C163.759 156.905 161.418 157.49 159.545 158.66C157.672 159.753 156.151 161.196 154.98 162.991C153.888 164.786 153.108 166.853 152.639 169.194C152.171 171.535 151.937 173.915 151.937 176.334ZM135.317 176.334C135.317 171.496 136.058 167.126 137.541 163.225C139.023 159.246 141.13 155.89 143.861 153.159C146.592 150.35 149.869 148.204 153.693 146.722C157.516 145.161 161.808 144.381 166.568 144.381C171.327 144.381 175.619 145.161 179.442 146.722C183.344 148.204 186.66 150.35 189.391 153.159C192.122 155.89 194.229 159.246 195.711 163.225C197.194 167.126 197.935 171.496 197.935 176.334C197.935 181.172 197.194 185.541 195.711 189.443C194.229 193.344 192.122 196.7 189.391 199.509C186.66 202.24 183.344 204.346 179.442 205.829C175.619 207.312 171.327 208.053 166.568 208.053C161.808 208.053 157.516 207.312 153.693 205.829C149.869 204.346 146.592 202.24 143.861 199.509C141.13 196.7 139.023 193.344 137.541 189.443C136.058 185.541 135.317 181.172 135.317 176.334ZM205.699 146.02H221.382V154.213H221.617C223.801 151.091 226.415 148.673 229.459 146.956C232.58 145.239 236.13 144.381 240.11 144.381C243.933 144.381 247.405 145.122 250.526 146.605C253.726 148.087 256.145 150.701 257.783 154.447C259.578 151.794 261.997 149.453 265.04 147.424C268.161 145.395 271.828 144.381 276.042 144.381C279.241 144.381 282.206 144.771 284.937 145.551C287.668 146.332 290.009 147.58 291.96 149.297C293.911 151.013 295.432 153.276 296.525 156.085C297.617 158.816 298.163 162.133 298.163 166.034V206.531H281.543V172.237C281.543 170.209 281.465 168.297 281.309 166.502C281.153 164.708 280.724 163.147 280.021 161.82C279.319 160.494 278.266 159.441 276.861 158.66C275.535 157.88 273.701 157.49 271.36 157.49C269.019 157.49 267.108 157.958 265.625 158.894C264.221 159.753 263.089 160.923 262.231 162.406C261.451 163.81 260.904 165.449 260.592 167.322C260.358 169.116 260.241 170.95 260.241 172.823V206.531H243.621V172.589C243.621 170.794 243.582 169.038 243.504 167.322C243.426 165.527 243.075 163.888 242.45 162.406C241.904 160.923 240.929 159.753 239.524 158.894C238.198 157.958 236.208 157.49 233.555 157.49C232.775 157.49 231.721 157.685 230.395 158.075C229.146 158.387 227.898 159.05 226.649 160.065C225.479 161.001 224.465 162.406 223.606 164.278C222.748 166.073 222.319 168.453 222.319 171.418V206.531H205.699V146.02ZM348.521 169.779C347.741 165.566 346.337 162.367 344.308 160.182C342.357 157.997 339.353 156.905 335.295 156.905C332.642 156.905 330.419 157.373 328.624 158.309C326.907 159.167 325.503 160.26 324.41 161.586C323.396 162.913 322.655 164.317 322.187 165.8C321.796 167.283 321.562 168.609 321.484 169.779H348.521ZM321.484 180.313C321.718 185.697 323.084 189.599 325.581 192.018C328.078 194.437 331.667 195.646 336.349 195.646C339.704 195.646 342.591 194.827 345.01 193.188C347.429 191.472 348.912 189.677 349.458 187.804H364.088C361.747 195.061 358.158 200.25 353.32 203.371C348.482 206.492 342.63 208.053 335.764 208.053C331.004 208.053 326.712 207.312 322.889 205.829C319.065 204.268 315.827 202.084 313.174 199.275C310.521 196.465 308.453 193.11 306.971 189.209C305.566 185.307 304.864 181.016 304.864 176.334C304.864 171.808 305.605 167.595 307.088 163.693C308.57 159.792 310.677 156.436 313.408 153.627C316.139 150.74 319.377 148.477 323.123 146.839C326.946 145.2 331.16 144.381 335.764 144.381C340.914 144.381 345.4 145.395 349.224 147.424C353.047 149.375 356.168 152.028 358.587 155.383C361.084 158.738 362.879 162.562 363.971 166.853C365.064 171.145 365.454 175.632 365.142 180.313H321.484Z" fill="white"/>
<path d="M38.1952 282.76C38.1952 284.555 38.5463 286.115 39.2486 287.442C40.0289 288.69 41.0042 289.744 42.1747 290.602C43.3451 291.382 44.6716 291.967 46.1542 292.358C47.7148 292.748 49.3144 292.943 50.953 292.943C52.1234 292.943 53.3329 292.826 54.5813 292.592C55.9078 292.28 57.0783 291.85 58.0927 291.304C59.1851 290.68 60.0824 289.9 60.7847 288.963C61.4869 287.949 61.8381 286.7 61.8381 285.218C61.8381 282.721 60.1604 280.848 56.8052 279.6C53.5279 278.351 48.9242 277.103 42.994 275.854C40.5751 275.308 38.1952 274.684 35.8543 273.982C33.5915 273.201 31.5627 272.226 29.768 271.056C27.9734 269.807 26.5298 268.286 25.4374 266.491C24.345 264.618 23.7988 262.355 23.7988 259.702C23.7988 255.801 24.5401 252.602 26.0226 250.105C27.5832 247.608 29.612 245.657 32.1089 244.253C34.6059 242.77 37.4149 241.756 40.5361 241.209C43.6572 240.585 46.8564 240.273 50.1337 240.273C53.4109 240.273 56.5711 240.585 59.6142 241.209C62.7354 241.834 65.5054 242.887 67.9243 244.37C70.3432 245.852 72.333 247.842 73.8936 250.339C75.5322 252.758 76.5076 255.84 76.8197 259.585H61.0188C60.7847 256.386 59.5752 254.24 57.3904 253.148C55.2056 251.977 52.6306 251.392 49.6655 251.392C48.7291 251.392 47.7148 251.47 46.6224 251.626C45.5299 251.704 44.5156 251.938 43.5792 252.329C42.7209 252.719 41.9796 253.304 41.3554 254.084C40.7311 254.786 40.419 255.762 40.419 257.01C40.419 258.493 40.9652 259.702 42.0576 260.639C43.1501 261.575 44.5546 262.355 46.2712 262.98C48.0659 263.526 50.0947 264.033 52.3575 264.501C54.6204 264.969 56.9222 265.476 59.2631 266.023C61.682 266.569 64.0229 267.232 66.2857 268.012C68.6266 268.793 70.6944 269.846 72.4891 271.173C74.2837 272.421 75.7273 274.021 76.8197 275.971C77.9121 277.844 78.4583 280.185 78.4583 282.994C78.4583 286.974 77.639 290.329 76.0004 293.06C74.4398 295.713 72.372 297.859 69.797 299.497C67.2221 301.136 64.257 302.267 60.9017 302.892C57.6245 303.594 54.2692 303.945 50.8359 303.945C47.3246 303.945 43.8913 303.594 40.5361 302.892C37.1808 302.189 34.1767 301.019 31.5237 299.38C28.9487 297.742 26.8029 295.596 25.0863 292.943C23.4477 290.212 22.5503 286.817 22.3943 282.76H38.1952ZM83.9722 260.522C84.2062 256.62 85.1816 253.382 86.8982 250.807C88.6149 248.232 90.7997 246.164 93.4527 244.604C96.1057 243.043 99.0708 241.951 102.348 241.326C105.703 240.624 109.059 240.273 112.414 240.273C115.457 240.273 118.539 240.507 121.66 240.975C124.781 241.365 127.63 242.185 130.204 243.433C132.779 244.682 134.886 246.437 136.525 248.7C138.163 250.885 138.983 253.811 138.983 257.478V288.963C138.983 291.694 139.139 294.308 139.451 296.805C139.763 299.302 140.309 301.175 141.09 302.423H124.235C123.923 301.487 123.65 300.551 123.416 299.614C123.26 298.6 123.143 297.586 123.065 296.571C120.412 299.302 117.291 301.214 113.701 302.306C110.112 303.399 106.445 303.945 102.699 303.945C99.8121 303.945 97.1201 303.594 94.6231 302.892C92.1262 302.189 89.9414 301.097 88.0687 299.614C86.196 298.132 84.7134 296.259 83.621 293.996C82.6066 291.733 82.0994 289.041 82.0994 285.92C82.0994 282.487 82.6847 279.678 83.8551 277.493C85.1036 275.23 86.6642 273.435 88.5369 272.109C90.4876 270.782 92.6724 269.807 95.0913 269.183C97.5883 268.481 100.085 267.934 102.582 267.544C105.079 267.154 107.537 266.842 109.956 266.608C112.375 266.374 114.521 266.023 116.393 265.555C118.266 265.086 119.749 264.423 120.841 263.565C121.933 262.628 122.441 261.302 122.363 259.585C122.363 257.791 122.05 256.386 121.426 255.372C120.88 254.279 120.1 253.46 119.085 252.914C118.149 252.29 117.018 251.899 115.691 251.743C114.443 251.509 113.077 251.392 111.595 251.392C108.317 251.392 105.742 252.094 103.87 253.499C101.997 254.904 100.904 257.244 100.592 260.522H83.9722ZM122.363 272.811C121.66 273.435 120.763 273.943 119.671 274.333C118.656 274.645 117.525 274.918 116.276 275.152C115.106 275.386 113.857 275.581 112.531 275.737C111.204 275.893 109.878 276.088 108.551 276.323C107.303 276.557 106.054 276.869 104.806 277.259C103.636 277.649 102.582 278.195 101.646 278.898C100.787 279.522 100.085 280.341 99.539 281.355C98.9928 282.37 98.7197 283.657 98.7197 285.218C98.7197 286.7 98.9928 287.949 99.539 288.963C100.085 289.978 100.826 290.797 101.763 291.421C102.699 291.967 103.792 292.358 105.04 292.592C106.289 292.826 107.576 292.943 108.902 292.943C112.18 292.943 114.716 292.397 116.51 291.304C118.305 290.212 119.632 288.924 120.49 287.442C121.348 285.881 121.855 284.321 122.011 282.76C122.245 281.199 122.363 279.951 122.363 279.015V272.811ZM181.846 302.423H163.353L142.637 241.912H160.076L172.834 283.228H173.068L185.826 241.912H202.329L181.846 302.423ZM222.757 232.548H206.137V218.854H222.757V232.548ZM206.137 241.912H222.757V302.423H206.137V241.912ZM232.333 241.912H248.133V250.339H248.485C250.591 246.828 253.322 244.292 256.678 242.731C260.033 241.092 263.466 240.273 266.978 240.273C271.425 240.273 275.054 240.897 277.863 242.146C280.75 243.316 283.013 244.994 284.651 247.179C286.29 249.285 287.421 251.899 288.045 255.021C288.748 258.064 289.099 261.458 289.099 265.203V302.423H272.479V268.247C272.479 263.253 271.698 259.546 270.138 257.127C268.577 254.63 265.807 253.382 261.828 253.382C257.302 253.382 254.025 254.747 251.996 257.478C249.967 260.131 248.953 264.54 248.953 270.704V302.423H232.333V241.912ZM326.409 288.144C328.75 288.144 330.818 287.676 332.613 286.739C334.407 285.803 335.89 284.555 337.06 282.994C338.231 281.433 339.089 279.678 339.635 277.727C340.26 275.698 340.572 273.592 340.572 271.407C340.572 268.91 340.338 266.569 339.869 264.384C339.401 262.121 338.621 260.131 337.528 258.415C336.436 256.698 334.993 255.333 333.198 254.318C331.403 253.304 329.14 252.797 326.409 252.797C324.068 252.797 322.04 253.265 320.323 254.201C318.684 255.138 317.28 256.425 316.109 258.064C315.017 259.624 314.198 261.458 313.652 263.565C313.183 265.594 312.949 267.739 312.949 270.002C312.949 272.187 313.144 274.372 313.534 276.557C314.003 278.663 314.744 280.575 315.758 282.292C316.851 284.008 318.255 285.413 319.972 286.505C321.689 287.598 323.834 288.144 326.409 288.144ZM356.373 298.561C356.373 300.98 356.021 303.75 355.319 306.871C354.695 309.992 353.29 312.879 351.106 315.532C348.921 318.263 345.761 320.565 341.625 322.438C337.489 324.311 331.949 325.247 325.005 325.247C322.04 325.247 318.997 324.857 315.875 324.076C312.832 323.374 310.023 322.243 307.448 320.682C304.951 319.122 302.844 317.093 301.128 314.596C299.489 312.177 298.553 309.251 298.319 305.818H314.822C315.602 308.939 317.124 311.085 319.387 312.255C321.65 313.503 324.264 314.128 327.229 314.128C331.91 314.128 335.305 312.723 337.411 309.914C339.596 307.105 340.65 303.555 340.572 299.263V291.304H340.338C338.543 294.503 335.968 296.883 332.613 298.444C329.335 299.926 325.863 300.668 322.196 300.668C317.67 300.668 313.769 299.887 310.491 298.327C307.214 296.688 304.522 294.503 302.415 291.772C300.309 288.963 298.748 285.725 297.734 282.058C296.797 278.312 296.329 274.372 296.329 270.236C296.329 266.335 296.875 262.589 297.968 259C299.138 255.333 300.816 252.133 303.001 249.402C305.185 246.593 307.877 244.37 311.077 242.731C314.354 241.092 318.099 240.273 322.313 240.273C326.292 240.273 329.765 241.014 332.73 242.497C335.773 243.979 338.309 246.476 340.338 249.988H340.572V241.912H356.373V298.561ZM379.117 282.76C379.117 284.555 379.469 286.115 380.171 287.442C380.951 288.69 381.927 289.744 383.097 290.602C384.267 291.382 385.594 291.967 387.076 292.358C388.637 292.748 390.237 292.943 391.875 292.943C393.046 292.943 394.255 292.826 395.504 292.592C396.83 292.28 398.001 291.85 399.015 291.304C400.107 290.68 401.005 289.9 401.707 288.963C402.409 287.949 402.76 286.7 402.76 285.218C402.76 282.721 401.083 280.848 397.727 279.6C394.45 278.351 389.846 277.103 383.916 275.854C381.497 275.308 379.117 274.684 376.777 273.982C374.514 273.201 372.485 272.226 370.69 271.056C368.896 269.807 367.452 268.286 366.36 266.491C365.267 264.618 364.721 262.355 364.721 259.702C364.721 255.801 365.462 252.602 366.945 250.105C368.505 247.608 370.534 245.657 373.031 244.253C375.528 242.77 378.337 241.756 381.458 241.209C384.58 240.585 387.779 240.273 391.056 240.273C394.333 240.273 397.493 240.585 400.536 241.209C403.658 241.834 406.428 242.887 408.847 244.37C411.266 245.852 413.255 247.842 414.816 250.339C416.454 252.758 417.43 255.84 417.742 259.585H401.941C401.707 256.386 400.497 254.24 398.313 253.148C396.128 251.977 393.553 251.392 390.588 251.392C389.651 251.392 388.637 251.47 387.545 251.626C386.452 251.704 385.438 251.938 384.501 252.329C383.643 252.719 382.902 253.304 382.278 254.084C381.653 254.786 381.341 255.762 381.341 257.01C381.341 258.493 381.888 259.702 382.98 260.639C384.072 261.575 385.477 262.355 387.193 262.98C388.988 263.526 391.017 264.033 393.28 264.501C395.543 264.969 397.844 265.476 400.185 266.023C402.604 266.569 404.945 267.232 407.208 268.012C409.549 268.793 411.617 269.846 413.411 271.173C415.206 272.421 416.65 274.021 417.742 275.971C418.834 277.844 419.381 280.185 419.381 282.994C419.381 286.974 418.561 290.329 416.923 293.06C415.362 295.713 413.294 297.859 410.719 299.497C408.144 301.136 405.179 302.267 401.824 302.892C398.547 303.594 395.191 303.945 391.758 303.945C388.247 303.945 384.814 303.594 381.458 302.892C378.103 302.189 375.099 301.019 372.446 299.38C369.871 297.742 367.725 295.596 366.009 292.943C364.37 290.212 363.473 286.817 363.317 282.76H379.117Z" fill="white"/>
<rect x="136" y="433" width="168.311" height="48.4032" rx="4.0336" fill="white"/>
<path d="M181.899 453.936H183.729C183.702 453.136 183.546 452.451 183.261 451.882C182.99 451.299 182.61 450.817 182.122 450.438C181.648 450.058 181.092 449.78 180.454 449.604C179.817 449.428 179.125 449.339 178.38 449.339C177.715 449.339 177.064 449.428 176.427 449.604C175.803 449.767 175.24 450.024 174.739 450.377C174.251 450.716 173.857 451.156 173.559 451.699C173.261 452.228 173.111 452.858 173.111 453.591C173.111 454.255 173.24 454.811 173.498 455.258C173.769 455.692 174.122 456.052 174.556 456.337C175.003 456.608 175.505 456.831 176.061 457.008C176.617 457.17 177.18 457.32 177.749 457.455C178.332 457.577 178.902 457.699 179.458 457.821C180.014 457.943 180.509 458.106 180.943 458.31C181.39 458.499 181.743 458.75 182 459.062C182.271 459.374 182.407 459.781 182.407 460.283C182.407 460.811 182.299 461.245 182.082 461.584C181.865 461.923 181.58 462.195 181.227 462.398C180.875 462.588 180.475 462.723 180.027 462.805C179.593 462.886 179.159 462.927 178.725 462.927C178.183 462.927 177.654 462.859 177.139 462.723C176.624 462.588 176.169 462.378 175.776 462.093C175.396 461.808 175.084 461.449 174.84 461.015C174.61 460.567 174.495 460.038 174.495 459.428H172.664C172.664 460.31 172.82 461.076 173.132 461.727C173.457 462.364 173.891 462.893 174.434 463.313C174.99 463.72 175.627 464.025 176.346 464.229C177.078 464.432 177.851 464.534 178.664 464.534C179.329 464.534 179.993 464.452 180.658 464.29C181.336 464.14 181.946 463.896 182.488 463.557C183.031 463.205 183.472 462.757 183.811 462.215C184.163 461.659 184.339 460.994 184.339 460.222C184.339 459.503 184.204 458.906 183.933 458.432C183.675 457.957 183.322 457.564 182.875 457.252C182.441 456.94 181.946 456.696 181.39 456.52C180.834 456.33 180.265 456.167 179.681 456.031C179.112 455.896 178.549 455.774 177.993 455.665C177.437 455.543 176.935 455.394 176.488 455.218C176.054 455.042 175.701 454.818 175.43 454.547C175.173 454.262 175.044 453.896 175.044 453.448C175.044 452.974 175.132 452.58 175.308 452.268C175.498 451.943 175.742 451.685 176.04 451.495C176.352 451.306 176.705 451.17 177.098 451.089C177.491 451.007 177.891 450.967 178.298 450.967C179.302 450.967 180.122 451.204 180.759 451.679C181.41 452.14 181.79 452.892 181.899 453.936ZM186.403 449.685V464.208H188.132V458.269C188.132 457.794 188.193 457.36 188.315 456.967C188.45 456.56 188.647 456.208 188.905 455.909C189.162 455.611 189.481 455.381 189.861 455.218C190.254 455.055 190.715 454.974 191.244 454.974C191.908 454.974 192.43 455.164 192.81 455.543C193.19 455.923 193.379 456.438 193.379 457.089V464.208H195.108V457.293C195.108 456.723 195.047 456.208 194.925 455.747C194.817 455.272 194.62 454.865 194.335 454.526C194.051 454.187 193.678 453.923 193.217 453.733C192.756 453.543 192.179 453.448 191.488 453.448C191.176 453.448 190.85 453.482 190.511 453.55C190.186 453.618 189.867 453.726 189.555 453.875C189.257 454.011 188.986 454.194 188.742 454.425C188.498 454.641 188.308 454.913 188.172 455.238H188.132V449.685H186.403ZM198.966 458.96C198.966 458.323 199.048 457.76 199.21 457.272C199.387 456.77 199.624 456.35 199.922 456.011C200.221 455.672 200.566 455.414 200.96 455.238C201.366 455.062 201.794 454.974 202.241 454.974C202.689 454.974 203.109 455.062 203.502 455.238C203.909 455.414 204.262 455.672 204.56 456.011C204.858 456.35 205.089 456.77 205.251 457.272C205.428 457.76 205.516 458.323 205.516 458.96C205.516 459.598 205.428 460.167 205.251 460.669C205.089 461.157 204.858 461.571 204.56 461.91C204.262 462.235 203.909 462.486 203.502 462.662C203.109 462.839 202.689 462.927 202.241 462.927C201.794 462.927 201.366 462.839 200.96 462.662C200.566 462.486 200.221 462.235 199.922 461.91C199.624 461.571 199.387 461.157 199.21 460.669C199.048 460.167 198.966 459.598 198.966 458.96ZM197.136 458.96C197.136 459.733 197.244 460.452 197.461 461.117C197.678 461.781 198.003 462.364 198.437 462.866C198.871 463.354 199.407 463.74 200.044 464.025C200.682 464.296 201.414 464.432 202.241 464.432C203.082 464.432 203.814 464.296 204.438 464.025C205.075 463.74 205.611 463.354 206.045 462.866C206.479 462.364 206.804 461.781 207.021 461.117C207.238 460.452 207.346 459.733 207.346 458.96C207.346 458.187 207.238 457.469 207.021 456.804C206.804 456.126 206.479 455.543 206.045 455.055C205.611 454.553 205.075 454.16 204.438 453.875C203.814 453.591 203.082 453.448 202.241 453.448C201.414 453.448 200.682 453.591 200.044 453.875C199.407 454.16 198.871 454.553 198.437 455.055C198.003 455.543 197.678 456.126 197.461 456.804C197.244 457.469 197.136 458.187 197.136 458.96ZM209.446 453.692V468.215H211.175V462.805H211.216C211.405 463.117 211.636 463.381 211.907 463.598C212.192 463.801 212.49 463.964 212.802 464.086C213.114 464.208 213.426 464.296 213.738 464.351C214.063 464.405 214.355 464.432 214.612 464.432C215.413 464.432 216.111 464.29 216.708 464.005C217.318 463.72 217.819 463.334 218.213 462.845C218.62 462.344 218.918 461.761 219.108 461.096C219.311 460.432 219.413 459.727 219.413 458.981C219.413 458.235 219.311 457.53 219.108 456.865C218.904 456.201 218.599 455.618 218.192 455.116C217.799 454.601 217.297 454.194 216.687 453.896C216.091 453.597 215.385 453.448 214.572 453.448C213.84 453.448 213.168 453.584 212.558 453.855C211.948 454.113 211.5 454.533 211.216 455.116H211.175V453.692H209.446ZM217.582 458.859C217.582 459.374 217.528 459.876 217.419 460.364C217.311 460.852 217.135 461.286 216.891 461.666C216.646 462.045 216.321 462.35 215.914 462.581C215.521 462.812 215.026 462.927 214.429 462.927C213.833 462.927 213.324 462.818 212.904 462.601C212.483 462.371 212.138 462.073 211.866 461.706C211.609 461.34 211.419 460.92 211.297 460.445C211.175 459.957 211.114 459.455 211.114 458.94C211.114 458.452 211.168 457.971 211.277 457.496C211.399 457.021 211.589 456.601 211.846 456.235C212.104 455.855 212.436 455.55 212.843 455.319C213.25 455.089 213.745 454.974 214.328 454.974C214.884 454.974 215.365 455.082 215.772 455.299C216.192 455.516 216.531 455.808 216.789 456.174C217.06 456.54 217.257 456.96 217.379 457.435C217.514 457.896 217.582 458.371 217.582 458.859ZM227.368 449.685V464.208H229.198V452.553H229.239L236.826 464.208H238.942V449.685H237.111V461.462H237.07L229.422 449.685H227.368ZM243.044 458.96C243.044 458.323 243.125 457.76 243.288 457.272C243.464 456.77 243.701 456.35 244 456.011C244.298 455.672 244.644 455.414 245.037 455.238C245.444 455.062 245.871 454.974 246.319 454.974C246.766 454.974 247.186 455.062 247.58 455.238C247.986 455.414 248.339 455.672 248.637 456.011C248.936 456.35 249.166 456.77 249.329 457.272C249.505 457.76 249.593 458.323 249.593 458.96C249.593 459.598 249.505 460.167 249.329 460.669C249.166 461.157 248.936 461.571 248.637 461.91C248.339 462.235 247.986 462.486 247.58 462.662C247.186 462.839 246.766 462.927 246.319 462.927C245.871 462.927 245.444 462.839 245.037 462.662C244.644 462.486 244.298 462.235 244 461.91C243.701 461.571 243.464 461.157 243.288 460.669C243.125 460.167 243.044 459.598 243.044 458.96ZM241.213 458.96C241.213 459.733 241.322 460.452 241.539 461.117C241.756 461.781 242.081 462.364 242.515 462.866C242.949 463.354 243.484 463.74 244.122 464.025C244.759 464.296 245.491 464.432 246.319 464.432C247.159 464.432 247.892 464.296 248.515 464.025C249.153 463.74 249.688 463.354 250.122 462.866C250.556 462.364 250.882 461.781 251.099 461.117C251.316 460.452 251.424 459.733 251.424 458.96C251.424 458.187 251.316 457.469 251.099 456.804C250.882 456.126 250.556 455.543 250.122 455.055C249.688 454.553 249.153 454.16 248.515 453.875C247.892 453.591 247.159 453.448 246.319 453.448C245.491 453.448 244.759 453.591 244.122 453.875C243.484 454.16 242.949 454.553 242.515 455.055C242.081 455.543 241.756 456.126 241.539 456.804C241.322 457.469 241.213 458.187 241.213 458.96ZM263.877 464.208L267.233 453.692H265.443L263.084 462.296H263.043L260.846 453.692H258.954L256.839 462.296H256.798L254.419 453.692H252.507L255.883 464.208H257.754L259.87 455.848H259.91L262.046 464.208H263.877Z" fill="white"/>
<rect x="136" y="433" width="168.311" height="48.4032" rx="4.0336" fill="#ED0000"/>
<path d="M181.899 453.936H183.729C183.702 453.136 183.546 452.451 183.261 451.882C182.99 451.299 182.61 450.817 182.122 450.438C181.648 450.058 181.092 449.78 180.454 449.604C179.817 449.428 179.125 449.339 178.38 449.339C177.715 449.339 177.064 449.428 176.427 449.604C175.803 449.767 175.24 450.024 174.739 450.377C174.251 450.716 173.857 451.156 173.559 451.699C173.261 452.228 173.111 452.858 173.111 453.591C173.111 454.255 173.24 454.811 173.498 455.258C173.769 455.692 174.122 456.052 174.556 456.337C175.003 456.608 175.505 456.831 176.061 457.008C176.617 457.17 177.18 457.32 177.749 457.455C178.332 457.577 178.902 457.699 179.458 457.821C180.014 457.943 180.509 458.106 180.943 458.31C181.39 458.499 181.743 458.75 182 459.062C182.271 459.374 182.407 459.781 182.407 460.283C182.407 460.811 182.299 461.245 182.082 461.584C181.865 461.923 181.58 462.195 181.227 462.398C180.875 462.588 180.475 462.723 180.027 462.805C179.593 462.886 179.159 462.927 178.725 462.927C178.183 462.927 177.654 462.859 177.139 462.723C176.624 462.588 176.169 462.378 175.776 462.093C175.396 461.808 175.084 461.449 174.84 461.015C174.61 460.567 174.495 460.038 174.495 459.428H172.664C172.664 460.31 172.82 461.076 173.132 461.727C173.457 462.364 173.891 462.893 174.434 463.313C174.99 463.72 175.627 464.025 176.346 464.229C177.078 464.432 177.851 464.534 178.664 464.534C179.329 464.534 179.993 464.452 180.658 464.29C181.336 464.14 181.946 463.896 182.488 463.557C183.031 463.205 183.472 462.757 183.811 462.215C184.163 461.659 184.339 460.994 184.339 460.222C184.339 459.503 184.204 458.906 183.933 458.432C183.675 457.957 183.322 457.564 182.875 457.252C182.441 456.94 181.946 456.696 181.39 456.52C180.834 456.33 180.265 456.167 179.681 456.031C179.112 455.896 178.549 455.774 177.993 455.665C177.437 455.543 176.935 455.394 176.488 455.218C176.054 455.042 175.701 454.818 175.43 454.547C175.173 454.262 175.044 453.896 175.044 453.448C175.044 452.974 175.132 452.58 175.308 452.268C175.498 451.943 175.742 451.685 176.04 451.495C176.352 451.306 176.705 451.17 177.098 451.089C177.491 451.007 177.891 450.967 178.298 450.967C179.302 450.967 180.122 451.204 180.759 451.679C181.41 452.14 181.79 452.892 181.899 453.936ZM186.403 449.685V464.208H188.132V458.269C188.132 457.794 188.193 457.36 188.315 456.967C188.45 456.56 188.647 456.208 188.905 455.909C189.162 455.611 189.481 455.381 189.861 455.218C190.254 455.055 190.715 454.974 191.244 454.974C191.908 454.974 192.43 455.164 192.81 455.543C193.19 455.923 193.379 456.438 193.379 457.089V464.208H195.108V457.293C195.108 456.723 195.047 456.208 194.925 455.747C194.817 455.272 194.62 454.865 194.335 454.526C194.051 454.187 193.678 453.923 193.217 453.733C192.756 453.543 192.179 453.448 191.488 453.448C191.176 453.448 190.85 453.482 190.511 453.55C190.186 453.618 189.867 453.726 189.555 453.875C189.257 454.011 188.986 454.194 188.742 454.425C188.498 454.641 188.308 454.913 188.172 455.238H188.132V449.685H186.403ZM198.966 458.96C198.966 458.323 199.048 457.76 199.21 457.272C199.387 456.77 199.624 456.35 199.922 456.011C200.221 455.672 200.566 455.414 200.96 455.238C201.366 455.062 201.794 454.974 202.241 454.974C202.689 454.974 203.109 455.062 203.502 455.238C203.909 455.414 204.262 455.672 204.56 456.011C204.858 456.35 205.089 456.77 205.251 457.272C205.428 457.76 205.516 458.323 205.516 458.96C205.516 459.598 205.428 460.167 205.251 460.669C205.089 461.157 204.858 461.571 204.56 461.91C204.262 462.235 203.909 462.486 203.502 462.662C203.109 462.839 202.689 462.927 202.241 462.927C201.794 462.927 201.366 462.839 200.96 462.662C200.566 462.486 200.221 462.235 199.922 461.91C199.624 461.571 199.387 461.157 199.21 460.669C199.048 460.167 198.966 459.598 198.966 458.96ZM197.136 458.96C197.136 459.733 197.244 460.452 197.461 461.117C197.678 461.781 198.003 462.364 198.437 462.866C198.871 463.354 199.407 463.74 200.044 464.025C200.682 464.296 201.414 464.432 202.241 464.432C203.082 464.432 203.814 464.296 204.438 464.025C205.075 463.74 205.611 463.354 206.045 462.866C206.479 462.364 206.804 461.781 207.021 461.117C207.238 460.452 207.346 459.733 207.346 458.96C207.346 458.187 207.238 457.469 207.021 456.804C206.804 456.126 206.479 455.543 206.045 455.055C205.611 454.553 205.075 454.16 204.438 453.875C203.814 453.591 203.082 453.448 202.241 453.448C201.414 453.448 200.682 453.591 200.044 453.875C199.407 454.16 198.871 454.553 198.437 455.055C198.003 455.543 197.678 456.126 197.461 456.804C197.244 457.469 197.136 458.187 197.136 458.96ZM209.446 453.692V468.215H211.175V462.805H211.216C211.405 463.117 211.636 463.381 211.907 463.598C212.192 463.801 212.49 463.964 212.802 464.086C213.114 464.208 213.426 464.296 213.738 464.351C214.063 464.405 214.355 464.432 214.612 464.432C215.413 464.432 216.111 464.29 216.708 464.005C217.318 463.72 217.819 463.334 218.213 462.845C218.62 462.344 218.918 461.761 219.108 461.096C219.311 460.432 219.413 459.727 219.413 458.981C219.413 458.235 219.311 457.53 219.108 456.865C218.904 456.201 218.599 455.618 218.192 455.116C217.799 454.601 217.297 454.194 216.687 453.896C216.091 453.597 215.385 453.448 214.572 453.448C213.84 453.448 213.168 453.584 212.558 453.855C211.948 454.113 211.5 454.533 211.216 455.116H211.175V453.692H209.446ZM217.582 458.859C217.582 459.374 217.528 459.876 217.419 460.364C217.311 460.852 217.135 461.286 216.891 461.666C216.646 462.045 216.321 462.35 215.914 462.581C215.521 462.812 215.026 462.927 214.429 462.927C213.833 462.927 213.324 462.818 212.904 462.601C212.483 462.371 212.138 462.073 211.866 461.706C211.609 461.34 211.419 460.92 211.297 460.445C211.175 459.957 211.114 459.455 211.114 458.94C211.114 458.452 211.168 457.971 211.277 457.496C211.399 457.021 211.589 456.601 211.846 456.235C212.104 455.855 212.436 455.55 212.843 455.319C213.25 455.089 213.745 454.974 214.328 454.974C214.884 454.974 215.365 455.082 215.772 455.299C216.192 455.516 216.531 455.808 216.789 456.174C217.06 456.54 217.257 456.96 217.379 457.435C217.514 457.896 217.582 458.371 217.582 458.859ZM227.368 449.685V464.208H229.198V452.553H229.239L236.826 464.208H238.942V449.685H237.111V461.462H237.07L229.422 449.685H227.368ZM243.044 458.96C243.044 458.323 243.125 457.76 243.288 457.272C243.464 456.77 243.701 456.35 244 456.011C244.298 455.672 244.644 455.414 245.037 455.238C245.444 455.062 245.871 454.974 246.319 454.974C246.766 454.974 247.186 455.062 247.58 455.238C247.986 455.414 248.339 455.672 248.637 456.011C248.936 456.35 249.166 456.77 249.329 457.272C249.505 457.76 249.593 458.323 249.593 458.96C249.593 459.598 249.505 460.167 249.329 460.669C249.166 461.157 248.936 461.571 248.637 461.91C248.339 462.235 247.986 462.486 247.58 462.662C247.186 462.839 246.766 462.927 246.319 462.927C245.871 462.927 245.444 462.839 245.037 462.662C244.644 462.486 244.298 462.235 244 461.91C243.701 461.571 243.464 461.157 243.288 460.669C243.125 460.167 243.044 459.598 243.044 458.96ZM241.213 458.96C241.213 459.733 241.322 460.452 241.539 461.117C241.756 461.781 242.081 462.364 242.515 462.866C242.949 463.354 243.484 463.74 244.122 464.025C244.759 464.296 245.491 464.432 246.319 464.432C247.159 464.432 247.892 464.296 248.515 464.025C249.153 463.74 249.688 463.354 250.122 462.866C250.556 462.364 250.882 461.781 251.099 461.117C251.316 460.452 251.424 459.733 251.424 458.96C251.424 458.187 251.316 457.469 251.099 456.804C250.882 456.126 250.556 455.543 250.122 455.055C249.688 454.553 249.153 454.16 248.515 453.875C247.892 453.591 247.159 453.448 246.319 453.448C245.491 453.448 244.759 453.591 244.122 453.875C243.484 454.16 242.949 454.553 242.515 455.055C242.081 455.543 241.756 456.126 241.539 456.804C241.322 457.469 241.213 458.187 241.213 458.96ZM263.877 464.208L267.233 453.692H265.443L263.084 462.296H263.043L260.846 453.692H258.954L256.839 462.296H256.798L254.419 453.692H252.507L255.883 464.208H257.754L259.87 455.848H259.91L262.046 464.208H263.877Z" fill="white"/>
<path d="M119.236 339.606H133.575V343.376H123.72V348.089H132.261V351.574H123.72V360H119.236V339.606ZM135.739 345.233H139.595V347.975H139.652C139.843 347.518 140.1 347.099 140.424 346.718C140.747 346.318 141.119 345.985 141.538 345.718C141.956 345.433 142.404 345.214 142.88 345.061C143.356 344.909 143.851 344.833 144.365 344.833C144.632 344.833 144.927 344.88 145.251 344.976V348.746C145.06 348.708 144.832 348.679 144.565 348.66C144.299 348.622 144.042 348.603 143.794 348.603C143.051 348.603 142.423 348.727 141.909 348.975C141.395 349.222 140.976 349.565 140.652 350.003C140.347 350.422 140.128 350.917 139.995 351.488C139.862 352.059 139.795 352.678 139.795 353.345V360H135.739V345.233ZM156.279 351.031C156.088 350.003 155.746 349.222 155.251 348.689C154.775 348.156 154.041 347.889 153.051 347.889C152.404 347.889 151.861 348.003 151.423 348.232C151.004 348.441 150.661 348.708 150.395 349.032C150.147 349.355 149.966 349.698 149.852 350.06C149.757 350.422 149.7 350.745 149.681 351.031H156.279ZM149.681 353.602C149.738 354.916 150.071 355.868 150.68 356.458C151.29 357.048 152.166 357.344 153.308 357.344C154.127 357.344 154.832 357.144 155.422 356.744C156.012 356.325 156.374 355.887 156.507 355.43H160.078C159.507 357.201 158.631 358.467 157.45 359.229C156.269 359.99 154.841 360.371 153.166 360.371C152.004 360.371 150.957 360.19 150.024 359.829C149.09 359.448 148.3 358.915 147.653 358.229C147.005 357.544 146.501 356.725 146.139 355.773C145.796 354.82 145.625 353.773 145.625 352.631C145.625 351.526 145.806 350.498 146.167 349.546C146.529 348.594 147.043 347.775 147.71 347.089C148.376 346.385 149.167 345.833 150.081 345.433C151.014 345.033 152.042 344.833 153.166 344.833C154.422 344.833 155.517 345.08 156.45 345.575C157.383 346.052 158.145 346.699 158.735 347.518C159.345 348.337 159.783 349.27 160.049 350.317C160.316 351.364 160.411 352.459 160.335 353.602H149.681ZM165.882 355.201C165.882 355.639 165.968 356.02 166.14 356.344C166.33 356.649 166.568 356.906 166.854 357.115C167.139 357.306 167.463 357.448 167.825 357.544C168.206 357.639 168.596 357.686 168.996 357.686C169.282 357.686 169.577 357.658 169.881 357.601C170.205 357.525 170.491 357.42 170.738 357.286C171.005 357.134 171.224 356.944 171.395 356.715C171.567 356.468 171.652 356.163 171.652 355.801C171.652 355.192 171.243 354.735 170.424 354.43C169.624 354.125 168.501 353.821 167.054 353.516C166.463 353.383 165.882 353.23 165.311 353.059C164.759 352.869 164.264 352.631 163.826 352.345C163.388 352.04 163.036 351.669 162.769 351.231C162.502 350.774 162.369 350.222 162.369 349.574C162.369 348.622 162.55 347.841 162.912 347.232C163.293 346.623 163.788 346.147 164.397 345.804C165.007 345.442 165.692 345.195 166.454 345.061C167.215 344.909 167.996 344.833 168.796 344.833C169.596 344.833 170.367 344.909 171.11 345.061C171.871 345.214 172.547 345.471 173.138 345.833C173.728 346.194 174.213 346.68 174.594 347.289C174.994 347.88 175.232 348.632 175.308 349.546H171.452C171.395 348.765 171.1 348.241 170.567 347.975C170.034 347.689 169.405 347.546 168.682 347.546C168.453 347.546 168.206 347.565 167.939 347.603C167.672 347.623 167.425 347.68 167.196 347.775C166.987 347.87 166.806 348.013 166.654 348.203C166.501 348.375 166.425 348.613 166.425 348.917C166.425 349.279 166.558 349.574 166.825 349.803C167.092 350.031 167.434 350.222 167.853 350.374C168.291 350.507 168.786 350.631 169.339 350.745C169.891 350.86 170.453 350.983 171.024 351.117C171.614 351.25 172.185 351.412 172.738 351.602C173.309 351.793 173.814 352.05 174.252 352.374C174.69 352.678 175.042 353.069 175.308 353.545C175.575 354.002 175.708 354.573 175.708 355.258C175.708 356.23 175.508 357.048 175.108 357.715C174.728 358.362 174.223 358.886 173.595 359.286C172.966 359.686 172.243 359.962 171.424 360.114C170.624 360.286 169.805 360.371 168.967 360.371C168.11 360.371 167.273 360.286 166.454 360.114C165.635 359.943 164.902 359.657 164.254 359.257C163.626 358.857 163.102 358.334 162.683 357.686C162.283 357.02 162.065 356.192 162.026 355.201H165.882ZM178.082 339.606H182.138V347.289H182.224C182.738 346.432 183.395 345.813 184.195 345.433C184.995 345.033 185.775 344.833 186.537 344.833C187.622 344.833 188.508 344.985 189.193 345.29C189.898 345.575 190.45 345.985 190.85 346.518C191.25 347.032 191.526 347.67 191.678 348.432C191.85 349.174 191.935 350.003 191.935 350.917V360H187.879V351.659C187.879 350.441 187.689 349.536 187.308 348.946C186.927 348.337 186.251 348.032 185.28 348.032C184.176 348.032 183.376 348.365 182.881 349.032C182.386 349.679 182.138 350.755 182.138 352.259V360H178.082V339.606ZM213.446 352.574C213.446 351.964 213.389 351.383 213.275 350.831C213.161 350.26 212.961 349.765 212.675 349.346C212.409 348.908 212.056 348.556 211.618 348.289C211.18 348.022 210.628 347.889 209.962 347.889C209.295 347.889 208.733 348.022 208.276 348.289C207.819 348.556 207.448 348.908 207.162 349.346C206.896 349.784 206.696 350.288 206.563 350.86C206.448 351.412 206.391 351.993 206.391 352.602C206.391 353.173 206.458 353.745 206.591 354.316C206.724 354.887 206.934 355.401 207.22 355.858C207.524 356.296 207.896 356.658 208.334 356.944C208.791 357.21 209.333 357.344 209.962 357.344C210.628 357.344 211.18 357.21 211.618 356.944C212.075 356.677 212.437 356.325 212.704 355.887C212.97 355.43 213.161 354.916 213.275 354.344C213.389 353.773 213.446 353.183 213.446 352.574ZM213.504 358.115H213.446C212.97 358.915 212.342 359.495 211.561 359.857C210.8 360.2 209.933 360.371 208.962 360.371C207.858 360.371 206.886 360.162 206.048 359.743C205.211 359.305 204.516 358.724 203.963 358.001C203.43 357.258 203.021 356.411 202.735 355.458C202.469 354.506 202.335 353.516 202.335 352.488C202.335 351.498 202.469 350.546 202.735 349.631C203.021 348.698 203.43 347.88 203.963 347.175C204.516 346.47 205.201 345.909 206.02 345.49C206.839 345.052 207.791 344.833 208.876 344.833C209.752 344.833 210.581 345.023 211.361 345.404C212.161 345.766 212.789 346.309 213.246 347.032H213.304V339.606H217.36V360H213.504V358.115ZM230.365 351.031C230.175 350.003 229.832 349.222 229.337 348.689C228.861 348.156 228.128 347.889 227.138 347.889C226.49 347.889 225.948 348.003 225.51 348.232C225.091 348.441 224.748 348.708 224.481 349.032C224.234 349.355 224.053 349.698 223.939 350.06C223.843 350.422 223.786 350.745 223.767 351.031H230.365ZM223.767 353.602C223.824 354.916 224.158 355.868 224.767 356.458C225.376 357.048 226.252 357.344 227.395 357.344C228.214 357.344 228.918 357.144 229.508 356.744C230.099 356.325 230.461 355.887 230.594 355.43H234.164C233.593 357.201 232.717 358.467 231.536 359.229C230.356 359.99 228.928 360.371 227.252 360.371C226.09 360.371 225.043 360.19 224.11 359.829C223.177 359.448 222.387 358.915 221.739 358.229C221.092 357.544 220.587 356.725 220.225 355.773C219.883 354.82 219.711 353.773 219.711 352.631C219.711 351.526 219.892 350.498 220.254 349.546C220.616 348.594 221.13 347.775 221.796 347.089C222.463 346.385 223.253 345.833 224.167 345.433C225.1 345.033 226.128 344.833 227.252 344.833C228.509 344.833 229.604 345.08 230.537 345.575C231.47 346.052 232.231 346.699 232.822 347.518C233.431 348.337 233.869 349.27 234.136 350.317C234.402 351.364 234.498 352.459 234.421 353.602H223.767ZM236.656 349.774C236.713 348.822 236.951 348.032 237.37 347.404C237.789 346.775 238.322 346.271 238.969 345.89C239.617 345.509 240.34 345.242 241.14 345.09C241.959 344.919 242.778 344.833 243.596 344.833C244.339 344.833 245.091 344.89 245.853 345.004C246.615 345.099 247.31 345.299 247.938 345.604C248.567 345.909 249.081 346.337 249.481 346.889C249.88 347.423 250.08 348.137 250.08 349.032V356.715C250.08 357.382 250.118 358.02 250.195 358.629C250.271 359.238 250.404 359.695 250.595 360H246.481C246.405 359.771 246.339 359.543 246.281 359.314C246.243 359.067 246.215 358.819 246.196 358.572C245.548 359.238 244.787 359.705 243.911 359.971C243.035 360.238 242.14 360.371 241.226 360.371C240.521 360.371 239.864 360.286 239.255 360.114C238.645 359.943 238.112 359.676 237.655 359.314C237.198 358.953 236.836 358.496 236.57 357.943C236.322 357.391 236.199 356.734 236.199 355.973C236.199 355.135 236.341 354.449 236.627 353.916C236.932 353.364 237.313 352.926 237.77 352.602C238.246 352.278 238.779 352.04 239.369 351.888C239.978 351.717 240.588 351.583 241.197 351.488C241.807 351.393 242.406 351.317 242.997 351.26C243.587 351.202 244.111 351.117 244.568 351.003C245.025 350.888 245.386 350.726 245.653 350.517C245.92 350.288 246.043 349.965 246.024 349.546C246.024 349.108 245.948 348.765 245.796 348.517C245.663 348.251 245.472 348.051 245.225 347.918C244.996 347.765 244.72 347.67 244.396 347.632C244.092 347.575 243.758 347.546 243.397 347.546C242.597 347.546 241.968 347.718 241.511 348.06C241.054 348.403 240.788 348.975 240.712 349.774H236.656ZM246.024 352.773C245.853 352.926 245.634 353.05 245.367 353.145C245.12 353.221 244.844 353.288 244.539 353.345C244.253 353.402 243.949 353.449 243.625 353.488C243.301 353.526 242.978 353.573 242.654 353.63C242.349 353.687 242.045 353.764 241.74 353.859C241.454 353.954 241.197 354.087 240.969 354.259C240.759 354.411 240.588 354.611 240.454 354.859C240.321 355.106 240.255 355.42 240.255 355.801C240.255 356.163 240.321 356.468 240.454 356.715C240.588 356.963 240.769 357.163 240.997 357.315C241.226 357.448 241.492 357.544 241.797 357.601C242.102 357.658 242.416 357.686 242.74 357.686C243.539 357.686 244.158 357.553 244.596 357.286C245.034 357.02 245.358 356.706 245.567 356.344C245.777 355.963 245.901 355.582 245.939 355.201C245.996 354.82 246.024 354.516 246.024 354.287V352.773ZM253.343 339.606H257.399V360H253.343V339.606ZM263.735 355.201C263.735 355.639 263.82 356.02 263.992 356.344C264.182 356.649 264.42 356.906 264.706 357.115C264.991 357.306 265.315 357.448 265.677 357.544C266.058 357.639 266.448 357.686 266.848 357.686C267.134 357.686 267.429 357.658 267.733 357.601C268.057 357.525 268.343 357.42 268.59 357.286C268.857 357.134 269.076 356.944 269.247 356.715C269.419 356.468 269.504 356.163 269.504 355.801C269.504 355.192 269.095 354.735 268.276 354.43C267.476 354.125 266.353 353.821 264.906 353.516C264.315 353.383 263.735 353.23 263.163 353.059C262.611 352.869 262.116 352.631 261.678 352.345C261.24 352.04 260.888 351.669 260.621 351.231C260.355 350.774 260.221 350.222 260.221 349.574C260.221 348.622 260.402 347.841 260.764 347.232C261.145 346.623 261.64 346.147 262.249 345.804C262.859 345.442 263.544 345.195 264.306 345.061C265.068 344.909 265.848 344.833 266.648 344.833C267.448 344.833 268.219 344.909 268.962 345.061C269.723 345.214 270.399 345.471 270.99 345.833C271.58 346.194 272.066 346.68 272.446 347.289C272.846 347.88 273.084 348.632 273.161 349.546H269.304C269.247 348.765 268.952 348.241 268.419 347.975C267.886 347.689 267.257 347.546 266.534 347.546C266.305 347.546 266.058 347.565 265.791 347.603C265.525 347.623 265.277 347.68 265.049 347.775C264.839 347.87 264.658 348.013 264.506 348.203C264.353 348.375 264.277 348.613 264.277 348.917C264.277 349.279 264.411 349.574 264.677 349.803C264.944 350.031 265.287 350.222 265.705 350.374C266.143 350.507 266.639 350.631 267.191 350.745C267.743 350.86 268.305 350.983 268.876 351.117C269.466 351.25 270.038 351.412 270.59 351.602C271.161 351.793 271.666 352.05 272.104 352.374C272.542 352.678 272.894 353.069 273.161 353.545C273.427 354.002 273.56 354.573 273.56 355.258C273.56 356.23 273.36 357.048 272.961 357.715C272.58 358.362 272.075 358.886 271.447 359.286C270.818 359.686 270.095 359.962 269.276 360.114C268.476 360.286 267.657 360.371 266.819 360.371C265.963 360.371 265.125 360.286 264.306 360.114C263.487 359.943 262.754 359.657 262.106 359.257C261.478 358.857 260.954 358.334 260.536 357.686C260.136 357.02 259.917 356.192 259.879 355.201H263.735ZM287.483 352.631C287.483 353.221 287.54 353.802 287.654 354.373C287.769 354.925 287.959 355.43 288.226 355.887C288.511 356.325 288.883 356.677 289.34 356.944C289.797 357.21 290.368 357.344 291.054 357.344C291.739 357.344 292.31 357.21 292.767 356.944C293.243 356.677 293.615 356.325 293.881 355.887C294.167 355.43 294.367 354.925 294.481 354.373C294.595 353.802 294.653 353.221 294.653 352.631C294.653 352.04 294.595 351.46 294.481 350.888C294.367 350.317 294.167 349.812 293.881 349.374C293.615 348.936 293.243 348.584 292.767 348.318C292.31 348.032 291.739 347.889 291.054 347.889C290.368 347.889 289.797 348.032 289.34 348.318C288.883 348.584 288.511 348.936 288.226 349.374C287.959 349.812 287.769 350.317 287.654 350.888C287.54 351.46 287.483 352.04 287.483 352.631ZM283.427 352.631C283.427 351.45 283.608 350.384 283.97 349.432C284.332 348.46 284.846 347.642 285.512 346.975C286.179 346.29 286.978 345.766 287.912 345.404C288.845 345.023 289.892 344.833 291.054 344.833C292.215 344.833 293.262 345.023 294.196 345.404C295.148 345.766 295.957 346.29 296.623 346.975C297.29 347.642 297.804 348.46 298.166 349.432C298.528 350.384 298.709 351.45 298.709 352.631C298.709 353.811 298.528 354.878 298.166 355.83C297.804 356.782 297.29 357.601 296.623 358.286C295.957 358.953 295.148 359.467 294.196 359.829C293.262 360.19 292.215 360.371 291.054 360.371C289.892 360.371 288.845 360.19 287.912 359.829C286.978 359.467 286.179 358.953 285.512 358.286C284.846 357.601 284.332 356.782 283.97 355.83C283.608 354.878 283.427 353.811 283.427 352.631ZM301.346 345.233H305.202V347.289H305.287C305.802 346.432 306.468 345.813 307.287 345.433C308.106 345.033 308.944 344.833 309.801 344.833C310.886 344.833 311.771 344.985 312.457 345.29C313.161 345.575 313.714 345.985 314.114 346.518C314.513 347.032 314.79 347.67 314.942 348.432C315.113 349.174 315.199 350.003 315.199 350.917V360H311.143V351.659C311.143 350.441 310.953 349.536 310.572 348.946C310.191 348.337 309.515 348.032 308.544 348.032C307.439 348.032 306.639 348.365 306.144 349.032C305.649 349.679 305.402 350.755 305.402 352.259V360H301.346V345.233ZM102.94 390.201C102.94 390.639 103.025 391.02 103.197 391.344C103.387 391.649 103.625 391.906 103.911 392.115C104.196 392.306 104.52 392.448 104.882 392.544C105.263 392.639 105.653 392.686 106.053 392.686C106.339 392.686 106.634 392.658 106.939 392.601C107.262 392.525 107.548 392.42 107.795 392.286C108.062 392.134 108.281 391.944 108.452 391.715C108.624 391.468 108.71 391.163 108.71 390.801C108.71 390.192 108.3 389.735 107.481 389.43C106.682 389.125 105.558 388.821 104.111 388.516C103.52 388.383 102.94 388.23 102.368 388.059C101.816 387.869 101.321 387.631 100.883 387.345C100.445 387.04 100.093 386.669 99.8263 386.231C99.5597 385.774 99.4264 385.222 99.4264 384.574C99.4264 383.622 99.6073 382.841 99.9691 382.232C100.35 381.623 100.845 381.147 101.454 380.804C102.064 380.442 102.749 380.195 103.511 380.061C104.273 379.909 105.053 379.833 105.853 379.833C106.653 379.833 107.424 379.909 108.167 380.061C108.929 380.214 109.605 380.471 110.195 380.833C110.785 381.194 111.271 381.68 111.652 382.289C112.051 382.88 112.289 383.632 112.366 384.546H108.51C108.452 383.765 108.157 383.241 107.624 382.975C107.091 382.689 106.463 382.546 105.739 382.546C105.51 382.546 105.263 382.565 104.996 382.603C104.73 382.623 104.482 382.68 104.254 382.775C104.044 382.87 103.863 383.013 103.711 383.203C103.559 383.375 103.482 383.613 103.482 383.917C103.482 384.279 103.616 384.574 103.882 384.803C104.149 385.031 104.492 385.222 104.911 385.374C105.349 385.507 105.844 385.631 106.396 385.745C106.948 385.86 107.51 385.983 108.081 386.117C108.671 386.25 109.243 386.412 109.795 386.602C110.366 386.793 110.871 387.05 111.309 387.374C111.747 387.678 112.099 388.069 112.366 388.545C112.632 389.002 112.766 389.573 112.766 390.258C112.766 391.23 112.566 392.048 112.166 392.715C111.785 393.362 111.28 393.886 110.652 394.286C110.023 394.686 109.3 394.962 108.481 395.114C107.681 395.286 106.862 395.371 106.025 395.371C105.168 395.371 104.33 395.286 103.511 395.114C102.692 394.943 101.959 394.657 101.312 394.257C100.683 393.857 100.16 393.334 99.7406 392.686C99.3407 392.02 99.1217 391.192 99.0836 390.201H102.94ZM128.993 395H125.137V392.943H125.051C124.537 393.8 123.87 394.419 123.051 394.8C122.233 395.181 121.395 395.371 120.538 395.371C119.452 395.371 118.558 395.229 117.853 394.943C117.167 394.657 116.625 394.257 116.225 393.743C115.825 393.21 115.539 392.572 115.368 391.829C115.216 391.068 115.139 390.23 115.139 389.316V380.233H119.195V388.573C119.195 389.792 119.386 390.706 119.767 391.315C120.148 391.906 120.824 392.201 121.795 392.201C122.899 392.201 123.699 391.877 124.194 391.23C124.689 390.563 124.937 389.478 124.937 387.973V380.233H128.993V395ZM132.185 380.233H136.013V382.232H136.07C136.603 381.47 137.241 380.88 137.984 380.461C138.745 380.042 139.612 379.833 140.583 379.833C141.516 379.833 142.363 380.014 143.125 380.376C143.906 380.737 144.496 381.375 144.896 382.289C145.334 381.642 145.924 381.071 146.667 380.575C147.429 380.08 148.324 379.833 149.352 379.833C150.133 379.833 150.856 379.928 151.523 380.118C152.189 380.309 152.761 380.614 153.237 381.032C153.713 381.451 154.084 382.004 154.351 382.689C154.617 383.356 154.75 384.165 154.75 385.117V395H150.694V386.631C150.694 386.136 150.675 385.669 150.637 385.231C150.599 384.793 150.494 384.412 150.323 384.089C150.152 383.765 149.895 383.508 149.552 383.318C149.228 383.127 148.781 383.032 148.209 383.032C147.638 383.032 147.172 383.146 146.81 383.375C146.467 383.584 146.191 383.87 145.981 384.232C145.791 384.574 145.658 384.974 145.582 385.431C145.524 385.869 145.496 386.317 145.496 386.774V395H141.44V386.717C141.44 386.279 141.43 385.85 141.411 385.431C141.392 384.993 141.307 384.593 141.154 384.232C141.021 383.87 140.783 383.584 140.44 383.375C140.116 383.146 139.631 383.032 138.983 383.032C138.793 383.032 138.536 383.08 138.212 383.175C137.908 383.251 137.603 383.413 137.298 383.66C137.013 383.889 136.765 384.232 136.556 384.689C136.346 385.127 136.241 385.707 136.241 386.431V395H132.185V380.233ZM158.071 380.233H161.898V382.232H161.956C162.489 381.47 163.127 380.88 163.869 380.461C164.631 380.042 165.497 379.833 166.469 379.833C167.402 379.833 168.249 380.014 169.011 380.376C169.791 380.737 170.382 381.375 170.782 382.289C171.22 381.642 171.81 381.071 172.553 380.575C173.314 380.08 174.209 379.833 175.238 379.833C176.018 379.833 176.742 379.928 177.408 380.118C178.075 380.309 178.646 380.614 179.122 381.032C179.598 381.451 179.97 382.004 180.236 382.689C180.503 383.356 180.636 384.165 180.636 385.117V395H176.58V386.631C176.58 386.136 176.561 385.669 176.523 385.231C176.485 384.793 176.38 384.412 176.209 384.089C176.037 383.765 175.78 383.508 175.438 383.318C175.114 383.127 174.666 383.032 174.095 383.032C173.524 383.032 173.057 383.146 172.695 383.375C172.353 383.584 172.077 383.87 171.867 384.232C171.677 384.574 171.543 384.974 171.467 385.431C171.41 385.869 171.382 386.317 171.382 386.774V395H167.325V386.717C167.325 386.279 167.316 385.85 167.297 385.431C167.278 384.993 167.192 384.593 167.04 384.232C166.907 383.87 166.669 383.584 166.326 383.375C166.002 383.146 165.516 383.032 164.869 383.032C164.679 383.032 164.422 383.08 164.098 383.175C163.793 383.251 163.488 383.413 163.184 383.66C162.898 383.889 162.651 384.232 162.441 384.689C162.232 385.127 162.127 385.707 162.127 386.431V395H158.071V380.233ZM193.782 386.031C193.592 385.003 193.249 384.222 192.754 383.689C192.278 383.156 191.545 382.889 190.555 382.889C189.907 382.889 189.365 383.003 188.927 383.232C188.508 383.441 188.165 383.708 187.898 384.032C187.651 384.355 187.47 384.698 187.356 385.06C187.26 385.422 187.203 385.745 187.184 386.031H193.782ZM187.184 388.602C187.241 389.916 187.575 390.868 188.184 391.458C188.793 392.048 189.669 392.344 190.812 392.344C191.631 392.344 192.335 392.144 192.925 391.744C193.516 391.325 193.878 390.887 194.011 390.43H197.581C197.01 392.201 196.134 393.467 194.953 394.229C193.773 394.99 192.345 395.371 190.669 395.371C189.507 395.371 188.46 395.19 187.527 394.829C186.594 394.448 185.804 393.915 185.156 393.229C184.509 392.544 184.004 391.725 183.642 390.773C183.3 389.82 183.128 388.773 183.128 387.631C183.128 386.526 183.309 385.498 183.671 384.546C184.033 383.594 184.547 382.775 185.213 382.089C185.88 381.385 186.67 380.833 187.584 380.433C188.517 380.033 189.545 379.833 190.669 379.833C191.926 379.833 193.021 380.08 193.954 380.575C194.887 381.052 195.649 381.699 196.239 382.518C196.848 383.337 197.286 384.27 197.553 385.317C197.819 386.364 197.915 387.459 197.838 388.602H187.184ZM200.244 380.233H204.1V382.975H204.157C204.348 382.518 204.605 382.099 204.928 381.718C205.252 381.318 205.623 380.985 206.042 380.718C206.461 380.433 206.909 380.214 207.385 380.061C207.861 379.909 208.356 379.833 208.87 379.833C209.137 379.833 209.432 379.88 209.756 379.976V383.746C209.565 383.708 209.337 383.679 209.07 383.66C208.803 383.622 208.546 383.603 208.299 383.603C207.556 383.603 206.928 383.727 206.414 383.975C205.9 384.222 205.481 384.565 205.157 385.003C204.852 385.422 204.633 385.917 204.5 386.488C204.367 387.059 204.3 387.678 204.3 388.345V395H200.244V380.233ZM233.149 395H229.293V392.943H229.207C228.693 393.8 228.026 394.419 227.208 394.8C226.389 395.181 225.551 395.371 224.694 395.371C223.609 395.371 222.714 395.229 222.009 394.943C221.324 394.657 220.781 394.257 220.381 393.743C219.981 393.21 219.695 392.572 219.524 391.829C219.372 391.068 219.296 390.23 219.296 389.316V380.233H223.352V388.573C223.352 389.792 223.542 390.706 223.923 391.315C224.304 391.906 224.98 392.201 225.951 392.201C227.055 392.201 227.855 391.877 228.35 391.23C228.845 390.563 229.093 389.478 229.093 387.973V380.233H233.149V395ZM243.682 392.344C244.349 392.344 244.901 392.21 245.339 391.944C245.796 391.677 246.158 391.334 246.424 390.915C246.71 390.477 246.91 389.973 247.024 389.402C247.138 388.83 247.196 388.25 247.196 387.659C247.196 387.069 247.129 386.488 246.996 385.917C246.881 385.346 246.681 384.841 246.396 384.403C246.11 383.946 245.739 383.584 245.282 383.318C244.844 383.032 244.301 382.889 243.654 382.889C242.987 382.889 242.425 383.032 241.968 383.318C241.53 383.584 241.169 383.936 240.883 384.374C240.616 384.812 240.426 385.317 240.312 385.888C240.198 386.46 240.14 387.05 240.14 387.659C240.14 388.25 240.198 388.83 240.312 389.402C240.445 389.973 240.645 390.477 240.912 390.915C241.197 391.334 241.569 391.677 242.026 391.944C242.483 392.21 243.035 392.344 243.682 392.344ZM236.227 380.233H240.083V382.118H240.14C240.636 381.318 241.264 380.737 242.026 380.376C242.787 380.014 243.625 379.833 244.539 379.833C245.701 379.833 246.7 380.052 247.538 380.49C248.376 380.928 249.071 381.509 249.623 382.232C250.176 382.956 250.585 383.803 250.852 384.774C251.118 385.726 251.252 386.726 251.252 387.773C251.252 388.764 251.118 389.716 250.852 390.63C250.585 391.544 250.176 392.353 249.623 393.058C249.09 393.762 248.414 394.324 247.595 394.743C246.796 395.162 245.853 395.371 244.768 395.371C243.854 395.371 243.006 395.19 242.226 394.829C241.464 394.448 240.835 393.896 240.34 393.172H240.283V400.17H236.227V380.233ZM264.172 387.574C264.172 386.964 264.115 386.383 264 385.831C263.886 385.26 263.686 384.765 263.4 384.346C263.134 383.908 262.782 383.556 262.344 383.289C261.906 383.022 261.353 382.889 260.687 382.889C260.02 382.889 259.459 383.022 259.002 383.289C258.545 383.556 258.173 383.908 257.888 384.346C257.621 384.784 257.421 385.288 257.288 385.86C257.174 386.412 257.116 386.993 257.116 387.602C257.116 388.173 257.183 388.745 257.316 389.316C257.45 389.887 257.659 390.401 257.945 390.858C258.249 391.296 258.621 391.658 259.059 391.944C259.516 392.21 260.058 392.344 260.687 392.344C261.353 392.344 261.906 392.21 262.344 391.944C262.801 391.677 263.162 391.325 263.429 390.887C263.696 390.43 263.886 389.916 264 389.344C264.115 388.773 264.172 388.183 264.172 387.574ZM264.229 393.115H264.172C263.696 393.915 263.067 394.495 262.286 394.857C261.525 395.2 260.658 395.371 259.687 395.371C258.583 395.371 257.612 395.162 256.774 394.743C255.936 394.305 255.241 393.724 254.689 393.001C254.155 392.258 253.746 391.411 253.46 390.458C253.194 389.506 253.06 388.516 253.06 387.488C253.06 386.498 253.194 385.546 253.46 384.631C253.746 383.698 254.155 382.88 254.689 382.175C255.241 381.47 255.926 380.909 256.745 380.49C257.564 380.052 258.516 379.833 259.601 379.833C260.477 379.833 261.306 380.023 262.087 380.404C262.886 380.766 263.515 381.309 263.972 382.032H264.029V374.606H268.085V395H264.229V393.115ZM270.979 384.774C271.036 383.822 271.274 383.032 271.693 382.404C272.112 381.775 272.645 381.271 273.293 380.89C273.94 380.509 274.664 380.242 275.464 380.09C276.282 379.919 277.101 379.833 277.92 379.833C278.663 379.833 279.415 379.89 280.177 380.004C280.938 380.099 281.633 380.299 282.262 380.604C282.89 380.909 283.404 381.337 283.804 381.889C284.204 382.423 284.404 383.137 284.404 384.032V391.715C284.404 392.382 284.442 393.02 284.518 393.629C284.594 394.238 284.728 394.695 284.918 395H280.805C280.729 394.771 280.662 394.543 280.605 394.314C280.567 394.067 280.538 393.819 280.519 393.572C279.872 394.238 279.11 394.705 278.234 394.971C277.358 395.238 276.463 395.371 275.549 395.371C274.845 395.371 274.188 395.286 273.578 395.114C272.969 394.943 272.436 394.676 271.979 394.314C271.522 393.953 271.16 393.496 270.893 392.943C270.646 392.391 270.522 391.734 270.522 390.973C270.522 390.135 270.665 389.449 270.951 388.916C271.255 388.364 271.636 387.926 272.093 387.602C272.569 387.278 273.102 387.04 273.693 386.888C274.302 386.717 274.911 386.583 275.521 386.488C276.13 386.393 276.73 386.317 277.32 386.26C277.911 386.202 278.434 386.117 278.891 386.003C279.348 385.888 279.71 385.726 279.977 385.517C280.243 385.288 280.367 384.965 280.348 384.546C280.348 384.108 280.272 383.765 280.119 383.517C279.986 383.251 279.796 383.051 279.548 382.918C279.32 382.765 279.044 382.67 278.72 382.632C278.415 382.575 278.082 382.546 277.72 382.546C276.92 382.546 276.292 382.718 275.835 383.06C275.378 383.403 275.111 383.975 275.035 384.774H270.979ZM280.348 387.773C280.177 387.926 279.958 388.05 279.691 388.145C279.443 388.221 279.167 388.288 278.863 388.345C278.577 388.402 278.272 388.449 277.949 388.488C277.625 388.526 277.301 388.573 276.977 388.63C276.673 388.687 276.368 388.764 276.063 388.859C275.778 388.954 275.521 389.087 275.292 389.259C275.083 389.411 274.911 389.611 274.778 389.859C274.645 390.106 274.578 390.42 274.578 390.801C274.578 391.163 274.645 391.468 274.778 391.715C274.911 391.963 275.092 392.163 275.321 392.315C275.549 392.448 275.816 392.544 276.121 392.601C276.425 392.658 276.739 392.686 277.063 392.686C277.863 392.686 278.482 392.553 278.92 392.286C279.358 392.02 279.681 391.706 279.891 391.344C280.1 390.963 280.224 390.582 280.262 390.201C280.319 389.82 280.348 389.516 280.348 389.287V387.773ZM292.694 380.233H295.664V382.946H292.694V390.258C292.694 390.944 292.808 391.401 293.036 391.63C293.265 391.858 293.722 391.972 294.407 391.972C294.636 391.972 294.855 391.963 295.064 391.944C295.274 391.925 295.474 391.896 295.664 391.858V395C295.321 395.057 294.941 395.095 294.522 395.114C294.103 395.133 293.693 395.143 293.293 395.143C292.665 395.143 292.065 395.095 291.494 395C290.942 394.924 290.447 394.762 290.009 394.514C289.59 394.267 289.256 393.915 289.009 393.458C288.761 393.001 288.638 392.401 288.638 391.658V382.946H286.181V380.233H288.638V375.805H292.694V380.233ZM307.534 386.031C307.344 385.003 307.001 384.222 306.506 383.689C306.03 383.156 305.297 382.889 304.306 382.889C303.659 382.889 303.116 383.003 302.678 383.232C302.259 383.441 301.917 383.708 301.65 384.032C301.402 384.355 301.222 384.698 301.107 385.06C301.012 385.422 300.955 385.745 300.936 386.031H307.534ZM300.936 388.602C300.993 389.916 301.326 390.868 301.936 391.458C302.545 392.048 303.421 392.344 304.563 392.344C305.382 392.344 306.087 392.144 306.677 391.744C307.267 391.325 307.629 390.887 307.763 390.43H311.333C310.762 392.201 309.886 393.467 308.705 394.229C307.525 394.99 306.096 395.371 304.421 395.371C303.259 395.371 302.212 395.19 301.279 394.829C300.346 394.448 299.555 393.915 298.908 393.229C298.26 392.544 297.756 391.725 297.394 390.773C297.051 389.82 296.88 388.773 296.88 387.631C296.88 386.526 297.061 385.498 297.423 384.546C297.784 383.594 298.299 382.775 298.965 382.089C299.632 381.385 300.422 380.833 301.336 380.433C302.269 380.033 303.297 379.833 304.421 379.833C305.677 379.833 306.772 380.08 307.705 380.575C308.639 381.052 309.4 381.699 309.991 382.518C310.6 383.337 311.038 384.27 311.304 385.317C311.571 386.364 311.666 387.459 311.59 388.602H300.936ZM317.138 390.201C317.138 390.639 317.223 391.02 317.395 391.344C317.585 391.649 317.823 391.906 318.109 392.115C318.394 392.306 318.718 392.448 319.08 392.544C319.461 392.639 319.851 392.686 320.251 392.686C320.537 392.686 320.832 392.658 321.137 392.601C321.46 392.525 321.746 392.42 321.993 392.286C322.26 392.134 322.479 391.944 322.65 391.715C322.822 391.468 322.907 391.163 322.907 390.801C322.907 390.192 322.498 389.735 321.679 389.43C320.879 389.125 319.756 388.821 318.309 388.516C317.718 388.383 317.138 388.23 316.566 388.059C316.014 387.869 315.519 387.631 315.081 387.345C314.643 387.04 314.291 386.669 314.024 386.231C313.758 385.774 313.624 385.222 313.624 384.574C313.624 383.622 313.805 382.841 314.167 382.232C314.548 381.623 315.043 381.147 315.652 380.804C316.262 380.442 316.947 380.195 317.709 380.061C318.471 379.909 319.251 379.833 320.051 379.833C320.851 379.833 321.622 379.909 322.365 380.061C323.126 380.214 323.802 380.471 324.393 380.833C324.983 381.194 325.469 381.68 325.849 382.289C326.249 382.88 326.487 383.632 326.564 384.546H322.707C322.65 383.765 322.355 383.241 321.822 382.975C321.289 382.689 320.66 382.546 319.937 382.546C319.708 382.546 319.461 382.565 319.194 382.603C318.928 382.623 318.68 382.68 318.452 382.775C318.242 382.87 318.061 383.013 317.909 383.203C317.756 383.375 317.68 383.613 317.68 383.917C317.68 384.279 317.814 384.574 318.08 384.803C318.347 385.031 318.69 385.222 319.108 385.374C319.546 385.507 320.042 385.631 320.594 385.745C321.146 385.86 321.708 385.983 322.279 386.117C322.869 386.25 323.441 386.412 323.993 386.602C324.564 386.793 325.069 387.05 325.507 387.374C325.945 387.678 326.297 388.069 326.564 388.545C326.83 389.002 326.963 389.573 326.963 390.258C326.963 391.23 326.764 392.048 326.364 392.715C325.983 393.362 325.478 393.886 324.85 394.286C324.221 394.686 323.498 394.962 322.679 395.114C321.879 395.286 321.06 395.371 320.222 395.371C319.366 395.371 318.528 395.286 317.709 395.114C316.89 394.943 316.157 394.657 315.51 394.257C314.881 393.857 314.357 393.334 313.939 392.686C313.539 392.02 313.32 391.192 313.282 390.201H317.138ZM329.537 390.601H334.022V395H329.537V390.601ZM333.879 380.09L332.765 388.887H330.737L329.652 380.09V374.606H333.879V380.09Z" fill="white"/>
</svg>
