<svg width="768" height="769" viewBox="0 0 768 769" fill="none" xmlns="http://www.w3.org/2000/svg">
<rect x="141" y="417" width="186.178" height="53.5414" rx="4.46178" fill="#ED0000"/>
<path d="M191.77 440.248H193.795C193.765 439.363 193.593 438.606 193.278 437.976C192.978 437.331 192.558 436.798 192.018 436.378C191.493 435.958 190.878 435.651 190.173 435.456C189.468 435.261 188.703 435.163 187.878 435.163C187.143 435.163 186.423 435.261 185.718 435.456C185.028 435.636 184.405 435.921 183.851 436.311C183.311 436.686 182.876 437.173 182.546 437.773C182.216 438.358 182.051 439.056 182.051 439.866C182.051 440.601 182.193 441.216 182.478 441.711C182.778 442.191 183.168 442.588 183.648 442.903C184.143 443.203 184.698 443.45 185.313 443.645C185.928 443.825 186.55 443.99 187.18 444.14C187.825 444.275 188.455 444.41 189.07 444.545C189.685 444.68 190.233 444.86 190.713 445.085C191.208 445.295 191.598 445.573 191.883 445.918C192.183 446.263 192.333 446.713 192.333 447.268C192.333 447.853 192.213 448.333 191.973 448.708C191.733 449.083 191.418 449.383 191.028 449.608C190.638 449.818 190.195 449.968 189.7 450.058C189.22 450.148 188.74 450.193 188.26 450.193C187.66 450.193 187.075 450.118 186.505 449.968C185.935 449.818 185.433 449.585 184.998 449.27C184.578 448.955 184.233 448.558 183.963 448.078C183.708 447.583 183.581 446.998 183.581 446.323H181.556C181.556 447.298 181.728 448.145 182.073 448.865C182.433 449.57 182.913 450.155 183.513 450.62C184.128 451.07 184.833 451.408 185.628 451.633C186.438 451.858 187.293 451.97 188.193 451.97C188.928 451.97 189.663 451.88 190.398 451.7C191.148 451.535 191.823 451.265 192.423 450.89C193.023 450.5 193.51 450.005 193.885 449.405C194.275 448.79 194.47 448.055 194.47 447.2C194.47 446.405 194.32 445.745 194.02 445.22C193.735 444.695 193.345 444.26 192.85 443.915C192.37 443.57 191.823 443.3 191.208 443.105C190.593 442.895 189.963 442.716 189.318 442.566C188.688 442.416 188.065 442.281 187.45 442.161C186.835 442.026 186.28 441.861 185.785 441.666C185.305 441.471 184.915 441.223 184.615 440.923C184.33 440.608 184.188 440.203 184.188 439.708C184.188 439.183 184.285 438.748 184.48 438.403C184.69 438.043 184.96 437.758 185.29 437.548C185.635 437.338 186.025 437.188 186.46 437.098C186.895 437.008 187.338 436.963 187.788 436.963C188.898 436.963 189.805 437.226 190.51 437.751C191.23 438.261 191.65 439.093 191.77 440.248ZM196.753 435.546V451.61H198.665V445.04C198.665 444.515 198.733 444.035 198.868 443.6C199.018 443.15 199.235 442.76 199.52 442.431C199.805 442.101 200.158 441.846 200.578 441.666C201.013 441.486 201.523 441.396 202.108 441.396C202.843 441.396 203.42 441.606 203.84 442.026C204.26 442.446 204.47 443.015 204.47 443.735V451.61H206.382V443.96C206.382 443.33 206.315 442.76 206.18 442.251C206.06 441.726 205.842 441.276 205.527 440.901C205.212 440.526 204.8 440.233 204.29 440.023C203.78 439.813 203.143 439.708 202.378 439.708C202.033 439.708 201.673 439.746 201.298 439.821C200.938 439.896 200.585 440.016 200.24 440.181C199.91 440.331 199.61 440.533 199.34 440.788C199.07 441.028 198.86 441.328 198.71 441.688H198.665V435.546H196.753ZM210.65 445.805C210.65 445.1 210.74 444.478 210.92 443.938C211.115 443.383 211.377 442.918 211.707 442.543C212.037 442.168 212.42 441.883 212.855 441.688C213.305 441.493 213.777 441.396 214.272 441.396C214.767 441.396 215.232 441.493 215.667 441.688C216.117 441.883 216.507 442.168 216.837 442.543C217.167 442.918 217.422 443.383 217.602 443.938C217.797 444.478 217.895 445.1 217.895 445.805C217.895 446.51 217.797 447.14 217.602 447.695C217.422 448.235 217.167 448.693 216.837 449.068C216.507 449.428 216.117 449.705 215.667 449.9C215.232 450.095 214.767 450.193 214.272 450.193C213.777 450.193 213.305 450.095 212.855 449.9C212.42 449.705 212.037 449.428 211.707 449.068C211.377 448.693 211.115 448.235 210.92 447.695C210.74 447.14 210.65 446.51 210.65 445.805ZM208.625 445.805C208.625 446.66 208.745 447.455 208.985 448.19C209.225 448.925 209.585 449.57 210.065 450.125C210.545 450.665 211.137 451.093 211.842 451.408C212.547 451.708 213.357 451.858 214.272 451.858C215.202 451.858 216.012 451.708 216.702 451.408C217.407 451.093 218 450.665 218.48 450.125C218.96 449.57 219.32 448.925 219.56 448.19C219.8 447.455 219.92 446.66 219.92 445.805C219.92 444.95 219.8 444.155 219.56 443.42C219.32 442.671 218.96 442.026 218.48 441.486C218 440.931 217.407 440.496 216.702 440.181C216.012 439.866 215.202 439.708 214.272 439.708C213.357 439.708 212.547 439.866 211.842 440.181C211.137 440.496 210.545 440.931 210.065 441.486C209.585 442.026 209.225 442.671 208.985 443.42C208.745 444.155 208.625 444.95 208.625 445.805ZM222.242 439.978V456.043H224.155V450.058H224.2C224.41 450.403 224.665 450.695 224.965 450.935C225.28 451.16 225.61 451.34 225.955 451.475C226.299 451.61 226.644 451.708 226.989 451.768C227.349 451.828 227.672 451.858 227.957 451.858C228.842 451.858 229.614 451.7 230.274 451.385C230.949 451.07 231.504 450.643 231.939 450.103C232.389 449.548 232.719 448.903 232.929 448.168C233.154 447.433 233.267 446.653 233.267 445.828C233.267 445.003 233.154 444.223 232.929 443.488C232.704 442.753 232.367 442.108 231.917 441.553C231.482 440.983 230.927 440.533 230.252 440.203C229.592 439.873 228.812 439.708 227.912 439.708C227.102 439.708 226.359 439.858 225.685 440.158C225.01 440.443 224.515 440.908 224.2 441.553H224.155V439.978H222.242ZM231.242 445.693C231.242 446.263 231.182 446.818 231.062 447.358C230.942 447.898 230.747 448.378 230.477 448.798C230.207 449.218 229.847 449.555 229.397 449.81C228.962 450.065 228.414 450.193 227.754 450.193C227.094 450.193 226.532 450.073 226.067 449.833C225.602 449.578 225.22 449.248 224.92 448.843C224.635 448.438 224.425 447.973 224.29 447.448C224.155 446.908 224.087 446.353 224.087 445.783C224.087 445.243 224.147 444.71 224.267 444.185C224.402 443.66 224.612 443.195 224.897 442.79C225.182 442.371 225.55 442.033 226 441.778C226.449 441.523 226.997 441.396 227.642 441.396C228.257 441.396 228.789 441.516 229.239 441.756C229.704 441.996 230.079 442.318 230.364 442.723C230.664 443.128 230.882 443.593 231.017 444.118C231.167 444.628 231.242 445.153 231.242 445.693ZM242.066 435.546V451.61H244.091V438.718H244.136L252.529 451.61H254.869V435.546H252.844V448.573H252.799L244.339 435.546H242.066ZM259.406 445.805C259.406 445.1 259.496 444.478 259.676 443.938C259.871 443.383 260.134 442.918 260.464 442.543C260.794 442.168 261.176 441.883 261.611 441.688C262.061 441.493 262.534 441.396 263.029 441.396C263.524 441.396 263.989 441.493 264.424 441.688C264.874 441.883 265.264 442.168 265.594 442.543C265.924 442.918 266.179 443.383 266.359 443.938C266.554 444.478 266.651 445.1 266.651 445.805C266.651 446.51 266.554 447.14 266.359 447.695C266.179 448.235 265.924 448.693 265.594 449.068C265.264 449.428 264.874 449.705 264.424 449.9C263.989 450.095 263.524 450.193 263.029 450.193C262.534 450.193 262.061 450.095 261.611 449.9C261.176 449.705 260.794 449.428 260.464 449.068C260.134 448.693 259.871 448.235 259.676 447.695C259.496 447.14 259.406 446.51 259.406 445.805ZM257.381 445.805C257.381 446.66 257.501 447.455 257.741 448.19C257.981 448.925 258.341 449.57 258.821 450.125C259.301 450.665 259.894 451.093 260.599 451.408C261.304 451.708 262.114 451.858 263.029 451.858C263.959 451.858 264.769 451.708 265.459 451.408C266.164 451.093 266.756 450.665 267.236 450.125C267.716 449.57 268.076 448.925 268.316 448.19C268.556 447.455 268.676 446.66 268.676 445.805C268.676 444.95 268.556 444.155 268.316 443.42C268.076 442.671 267.716 442.026 267.236 441.486C266.756 440.931 266.164 440.496 265.459 440.181C264.769 439.866 263.959 439.708 263.029 439.708C262.114 439.708 261.304 439.866 260.599 440.181C259.894 440.496 259.301 440.931 258.821 441.486C258.341 442.026 257.981 442.671 257.741 443.42C257.501 444.155 257.381 444.95 257.381 445.805ZM282.451 451.61L286.163 439.978H284.183L281.573 449.495H281.528L279.098 439.978H277.006L274.666 449.495H274.621L271.989 439.978H269.874L273.609 451.61H275.679L278.018 442.363H278.063L280.426 451.61H282.451Z" fill="white"/>
<path d="M147.284 77.9789C147.24 76.7066 146.977 75.6097 146.495 74.6883C146.012 73.7231 145.354 72.9334 144.52 72.3191C143.731 71.7049 142.809 71.2662 141.756 71.0029C140.703 70.6958 139.584 70.5422 138.4 70.5422C137.478 70.5422 136.535 70.6519 135.57 70.8713C134.649 71.0468 133.793 71.3758 133.003 71.8585C132.214 72.2972 131.577 72.8895 131.095 73.6354C130.612 74.3812 130.371 75.3026 130.371 76.3994C130.371 77.3208 130.59 78.1105 131.029 78.7686C131.512 79.3829 132.104 79.9094 132.806 80.3481C133.508 80.7868 134.276 81.1598 135.109 81.4669C135.943 81.7301 136.711 81.9495 137.413 82.125L142.941 83.3754C144.125 83.5509 145.288 83.88 146.429 84.3626C147.613 84.8013 148.644 85.3936 149.522 86.1395C150.443 86.8854 151.189 87.8067 151.76 88.9036C152.33 90.0004 152.615 91.2947 152.615 92.7864C152.615 94.6291 152.198 96.2086 151.365 97.5248C150.531 98.7972 149.456 99.8502 148.14 100.684C146.868 101.474 145.42 102.044 143.796 102.395C142.173 102.746 140.572 102.921 138.992 102.921C135 102.921 131.753 101.978 129.252 100.091C126.795 98.2049 125.391 95.1776 125.04 91.0095H129.186C129.362 93.8175 130.371 95.9454 132.214 97.3932C134.1 98.7972 136.425 99.4992 139.19 99.4992C140.199 99.4992 141.23 99.3895 142.283 99.1701C143.38 98.9507 144.389 98.5778 145.31 98.0513C146.231 97.5248 146.977 96.8667 147.548 96.077C148.162 95.2434 148.469 94.2343 148.469 93.0497C148.469 92.0406 148.25 91.207 147.811 90.5488C147.416 89.8469 146.868 89.2765 146.166 88.8378C145.464 88.3551 144.652 87.9603 143.731 87.6532C142.853 87.346 141.954 87.0828 141.032 86.8634L135.702 85.6788C134.341 85.3278 133.091 84.933 131.95 84.4942C130.81 84.0116 129.8 83.4412 128.923 82.7831C128.089 82.0811 127.431 81.2475 126.949 80.2823C126.466 79.2732 126.225 78.0447 126.225 76.5969C126.225 74.8858 126.598 73.416 127.344 72.1875C128.133 70.959 129.142 69.9719 130.371 69.226C131.599 68.4802 132.959 67.9317 134.451 67.5807C135.987 67.2297 137.5 67.0542 138.992 67.0542C140.703 67.0542 142.283 67.2736 143.731 67.7124C145.222 68.1511 146.517 68.8311 147.613 69.7525C148.754 70.6739 149.654 71.8146 150.312 73.1747C150.97 74.5348 151.343 76.1362 151.43 77.9789H147.284ZM184.168 102H180.351V95.8796H180.219C179.122 98.161 177.521 99.916 175.415 101.144C173.353 102.329 171.05 102.921 168.505 102.921C166.355 102.921 164.512 102.614 162.977 102C161.485 101.43 160.257 100.596 159.291 99.4992C158.37 98.4023 157.69 97.0642 157.251 95.4847C156.812 93.9052 156.593 92.1064 156.593 90.0882V68.0414H160.739V90.154C160.827 93.2252 161.529 95.5505 162.845 97.13C164.205 98.7094 166.531 99.4992 169.821 99.4992C171.62 99.4992 173.156 99.1262 174.428 98.3804C175.7 97.5906 176.753 96.5596 177.587 95.2873C178.42 94.0149 179.035 92.5671 179.43 90.9437C179.824 89.2765 180.022 87.5873 180.022 85.8763V68.0414H184.168V102ZM190.032 68.0414H193.849V73.767H194.047C195.144 71.661 196.57 70.0157 198.325 68.8311C200.123 67.6465 202.405 67.0542 205.169 67.0542C207.406 67.0542 209.425 67.6027 211.224 68.6995C213.066 69.7964 214.295 71.4636 214.909 73.7012C215.918 71.4636 217.41 69.7964 219.384 68.6995C221.358 67.6027 223.464 67.0542 225.702 67.0542C233.204 67.0542 236.956 71.0249 236.956 78.9661V102H232.81V79.1635C232.81 76.3556 232.217 74.2277 231.033 72.7798C229.848 71.2881 227.764 70.5422 224.781 70.5422C222.982 70.5422 221.49 70.8932 220.305 71.5952C219.121 72.2533 218.178 73.1527 217.476 74.2935C216.774 75.4342 216.269 76.7504 215.962 78.2421C215.699 79.69 215.567 81.2037 215.567 82.7831V102H211.421V78.9661C211.421 77.8253 211.289 76.7504 211.026 75.7413C210.807 74.6883 210.412 73.7889 209.842 73.0431C209.315 72.2533 208.591 71.6391 207.67 71.2003C206.748 70.7616 205.63 70.5422 204.313 70.5422C202.558 70.5422 201.023 70.8713 199.707 71.5294C198.434 72.1436 197.381 73.0211 196.548 74.1619C195.758 75.2587 195.166 76.5749 194.771 78.1105C194.376 79.6022 194.178 81.2475 194.178 83.0464V102H190.032V68.0414ZM242.879 68.0414H246.696V73.767H246.894C247.991 71.661 249.416 70.0157 251.171 68.8311C252.97 67.6465 255.252 67.0542 258.016 67.0542C260.253 67.0542 262.272 67.6027 264.07 68.6995C265.913 69.7964 267.142 71.4636 267.756 73.7012C268.765 71.4636 270.257 69.7964 272.231 68.6995C274.205 67.6027 276.311 67.0542 278.549 67.0542C286.051 67.0542 289.803 71.0249 289.803 78.9661V102H285.657V79.1635C285.657 76.3556 285.064 74.2277 283.88 72.7798C282.695 71.2881 280.611 70.5422 277.628 70.5422C275.829 70.5422 274.337 70.8932 273.152 71.5952C271.968 72.2533 271.025 73.1527 270.323 74.2935C269.621 75.4342 269.116 76.7504 268.809 78.2421C268.546 79.69 268.414 81.2037 268.414 82.7831V102H264.268V78.9661C264.268 77.8253 264.136 76.7504 263.873 75.7413C263.654 74.6883 263.259 73.7889 262.688 73.0431C262.162 72.2533 261.438 71.6391 260.517 71.2003C259.595 70.7616 258.477 70.5422 257.16 70.5422C255.405 70.5422 253.87 70.8713 252.553 71.5294C251.281 72.1436 250.228 73.0211 249.395 74.1619C248.605 75.2587 248.013 76.5749 247.618 78.1105C247.223 79.6022 247.025 81.2475 247.025 83.0464V102H242.879V68.0414ZM320.142 82.6515C320.098 81.072 319.813 79.5584 319.287 78.1105C318.804 76.6627 318.102 75.3903 317.181 74.2935C316.259 73.1527 315.14 72.2533 313.824 71.5952C312.508 70.8932 311.016 70.5422 309.349 70.5422C307.638 70.5422 306.124 70.8932 304.808 71.5952C303.492 72.2533 302.373 73.1527 301.452 74.2935C300.53 75.3903 299.785 76.6846 299.214 78.1763C298.688 79.6242 298.337 81.1159 298.161 82.6515H320.142ZM298.161 86.1395C298.161 87.6312 298.359 89.1887 298.753 90.8121C299.192 92.3916 299.872 93.8175 300.794 95.0898C301.715 96.3622 302.878 97.4152 304.282 98.2488C305.686 99.0824 307.375 99.4992 309.349 99.4992C312.376 99.4992 314.746 98.7094 316.457 97.13C318.168 95.5505 319.352 93.4445 320.011 90.8121H324.157C323.279 94.673 321.656 97.6565 319.287 99.7624C316.961 101.868 313.649 102.921 309.349 102.921C306.673 102.921 304.347 102.461 302.373 101.539C300.443 100.574 298.863 99.2798 297.635 97.6565C296.406 95.9892 295.485 94.0807 294.871 91.9309C294.3 89.7372 294.015 87.4338 294.015 85.0207C294.015 82.7831 294.3 80.5894 294.871 78.4396C295.485 76.2898 296.406 74.3812 297.635 72.714C298.863 71.0029 300.443 69.6428 302.373 68.6337C304.347 67.5807 306.673 67.0542 309.349 67.0542C312.069 67.0542 314.395 67.6027 316.325 68.6995C318.256 69.7964 319.813 71.2442 320.998 73.0431C322.226 74.798 323.104 76.8382 323.63 79.1635C324.157 81.445 324.376 83.7703 324.288 86.1395H298.161ZM327.879 68.0414H331.696V76.0046H331.827C332.88 73.2405 334.504 71.1126 336.697 69.6209C338.935 68.1292 341.589 67.4491 344.66 67.5807V71.7268C342.774 71.6391 341.063 71.9023 339.527 72.5166C337.992 73.0869 336.653 73.9205 335.513 75.0174C334.416 76.1143 333.56 77.4305 332.946 78.9661C332.332 80.4578 332.025 82.1031 332.025 83.9019V102H327.879V68.0414Z" fill="white"/>
<path d="M80.6563 110.153H98.16V143.311H98.5298C100.749 139.613 103.584 136.942 107.035 135.299C110.487 133.573 113.856 132.71 117.143 132.71C121.827 132.71 125.648 133.368 128.607 134.683C131.647 135.915 134.03 137.682 135.756 139.983C137.482 142.202 138.673 144.955 139.331 148.242C140.07 151.447 140.44 155.021 140.44 158.966V198.164H122.936V162.171C122.936 156.911 122.115 153.008 120.471 150.461C118.828 147.831 115.91 146.516 111.719 146.516C106.953 146.516 103.502 147.954 101.365 150.83C99.2283 153.624 98.16 158.267 98.16 164.759V198.164H80.6563V110.153ZM165.558 166.362C165.558 168.909 165.805 171.416 166.298 173.881C166.791 176.264 167.613 178.442 168.763 180.414C169.996 182.304 171.598 183.824 173.571 184.975C175.543 186.125 178.008 186.701 180.966 186.701C183.925 186.701 186.39 186.125 188.362 184.975C190.417 183.824 192.019 182.304 193.17 180.414C194.402 178.442 195.265 176.264 195.758 173.881C196.251 171.416 196.498 168.909 196.498 166.362C196.498 163.814 196.251 161.308 195.758 158.843C195.265 156.377 194.402 154.2 193.17 152.31C192.019 150.419 190.417 148.899 188.362 147.749C186.39 146.516 183.925 145.9 180.966 145.9C178.008 145.9 175.543 146.516 173.571 147.749C171.598 148.899 169.996 150.419 168.763 152.31C167.613 154.2 166.791 156.377 166.298 158.843C165.805 161.308 165.558 163.814 165.558 166.362ZM148.055 166.362C148.055 161.267 148.835 156.665 150.397 152.556C151.958 148.365 154.177 144.831 157.053 141.955C159.929 138.997 163.381 136.737 167.407 135.176C171.434 133.532 175.954 132.71 180.966 132.71C185.979 132.71 190.499 133.532 194.526 135.176C198.635 136.737 202.127 138.997 205.003 141.955C207.879 144.831 210.098 148.365 211.66 152.556C213.221 156.665 214.002 161.267 214.002 166.362C214.002 171.457 213.221 176.059 211.66 180.168C210.098 184.276 207.879 187.81 205.003 190.768C202.127 193.645 198.635 195.863 194.526 197.425C190.499 198.986 185.979 199.767 180.966 199.767C175.954 199.767 171.434 198.986 167.407 197.425C163.381 195.863 159.929 193.645 157.053 190.768C154.177 187.81 151.958 184.276 150.397 180.168C148.835 176.059 148.055 171.457 148.055 166.362ZM222.178 134.436H238.695V143.065H238.942C241.243 139.778 243.996 137.23 247.201 135.422C250.488 133.614 254.227 132.71 258.418 132.71C262.444 132.71 266.101 133.491 269.388 135.052C272.758 136.614 275.305 139.367 277.031 143.311C278.921 140.517 281.468 138.052 284.673 135.915C287.96 133.779 291.823 132.71 296.26 132.71C299.629 132.71 302.752 133.121 305.628 133.943C308.505 134.765 310.97 136.08 313.024 137.887C315.079 139.695 316.681 142.079 317.832 145.037C318.982 147.913 319.557 151.406 319.557 155.514V198.164H302.054V162.048C302.054 159.911 301.971 157.898 301.807 156.008C301.643 154.117 301.191 152.474 300.451 151.077C299.712 149.68 298.602 148.57 297.123 147.749C295.726 146.927 293.795 146.516 291.33 146.516C288.864 146.516 286.851 147.009 285.29 147.995C283.81 148.899 282.619 150.132 281.715 151.693C280.893 153.172 280.318 154.898 279.989 156.87C279.743 158.76 279.619 160.692 279.619 162.664V198.164H262.116V162.417C262.116 160.527 262.075 158.678 261.992 156.87C261.91 154.98 261.54 153.255 260.883 151.693C260.308 150.132 259.281 148.899 257.801 147.995C256.404 147.009 254.309 146.516 251.515 146.516C250.693 146.516 249.584 146.722 248.187 147.132C246.872 147.461 245.557 148.16 244.242 149.228C243.009 150.214 241.941 151.693 241.037 153.665C240.133 155.556 239.681 158.062 239.681 161.185V198.164H222.178V134.436ZM372.592 159.459C371.771 155.021 370.291 151.652 368.155 149.351C366.1 147.05 362.937 145.9 358.663 145.9C355.869 145.9 353.527 146.393 351.637 147.379C349.829 148.283 348.35 149.433 347.2 150.83C346.131 152.227 345.351 153.707 344.858 155.268C344.447 156.829 344.2 158.226 344.118 159.459H372.592ZM344.118 170.553C344.365 176.223 345.803 180.332 348.432 182.879C351.062 185.427 354.842 186.701 359.773 186.701C363.306 186.701 366.347 185.838 368.894 184.112C371.442 182.304 373.003 180.414 373.578 178.442H388.987C386.521 186.084 382.741 191.549 377.646 194.836C372.551 198.123 366.388 199.767 359.156 199.767C354.144 199.767 349.624 198.986 345.597 197.425C341.571 195.781 338.16 193.48 335.366 190.522C332.572 187.563 330.394 184.03 328.833 179.921C327.354 175.812 326.614 171.292 326.614 166.362C326.614 161.596 327.395 157.158 328.956 153.049C330.518 148.94 332.736 145.407 335.613 142.448C338.489 139.408 341.899 137.025 345.844 135.299C349.87 133.573 354.308 132.71 359.156 132.71C364.58 132.71 369.305 133.779 373.332 135.915C377.359 137.97 380.646 140.764 383.193 144.297C385.823 147.831 387.713 151.858 388.863 156.377C390.014 160.897 390.425 165.622 390.096 170.553H344.118Z" fill="white"/>
<path d="M41.2155 278.445C41.2155 280.335 41.5853 281.979 42.3249 283.376C43.1467 284.69 44.1739 285.8 45.4066 286.704C46.6392 287.526 48.0362 288.142 49.5976 288.553C51.2411 288.964 52.9258 289.169 54.6515 289.169C55.8841 289.169 57.1579 289.046 58.4727 288.799C59.8697 288.471 61.1024 288.019 62.1707 287.443C63.3211 286.786 64.2662 285.964 65.0058 284.978C65.7454 283.91 66.1152 282.595 66.1152 281.034C66.1152 278.404 64.3484 276.432 60.8147 275.117C57.3633 273.802 52.5149 272.487 46.2694 271.172C43.7219 270.597 41.2155 269.94 38.7502 269.2C36.3671 268.378 34.2305 267.351 32.3404 266.118C30.4504 264.804 28.9301 263.201 27.7796 261.311C26.6291 259.339 26.0539 256.956 26.0539 254.162C26.0539 250.053 26.8346 246.684 28.3959 244.054C30.0395 241.424 32.1761 239.37 34.8057 237.891C37.4354 236.329 40.3938 235.261 43.6808 234.686C46.9679 234.028 50.3372 233.7 53.7886 233.7C57.2401 233.7 60.5682 234.028 63.7731 234.686C67.0602 235.343 69.9775 236.453 72.525 238.014C75.0725 239.575 77.168 241.671 78.8115 244.3C80.5372 246.848 81.5644 250.094 81.8931 254.038H65.2523C65.0058 250.669 63.732 248.409 61.4311 247.259C59.1301 246.026 56.4183 245.41 53.2956 245.41C52.3094 245.41 51.2411 245.492 50.0907 245.656C48.9402 245.739 47.8719 245.985 46.8858 246.396C45.9818 246.807 45.2011 247.423 44.5437 248.245C43.8863 248.985 43.5576 250.012 43.5576 251.327C43.5576 252.888 44.1328 254.162 45.2833 255.148C46.4338 256.134 47.913 256.956 49.7209 257.613C51.6109 258.188 53.7475 258.722 56.1307 259.216C58.5138 259.709 60.938 260.243 63.4033 260.818C65.9508 261.393 68.4161 262.092 70.7993 262.914C73.2646 263.735 75.4423 264.845 77.3323 266.242C79.2224 267.557 80.7427 269.241 81.8931 271.296C83.0436 273.268 83.6189 275.733 83.6189 278.691C83.6189 282.883 82.756 286.416 81.0303 289.292C79.3867 292.086 77.2091 294.346 74.4972 296.072C71.7854 297.798 68.6627 298.989 65.129 299.647C61.6776 300.386 58.144 300.756 54.5282 300.756C50.8302 300.756 47.2145 300.386 43.6808 299.647C40.1472 298.907 36.9834 297.674 34.1894 295.949C31.4776 294.223 29.2177 291.963 27.4098 289.169C25.6841 286.293 24.7391 282.718 24.5747 278.445H41.2155ZM89.4258 255.025C89.6723 250.916 90.6996 247.505 92.5075 244.793C94.3153 242.082 96.6163 239.904 99.4103 238.26C102.204 236.617 105.327 235.466 108.778 234.809C112.312 234.069 115.846 233.7 119.379 233.7C122.584 233.7 125.83 233.946 129.117 234.439C132.404 234.85 135.404 235.713 138.116 237.028C140.828 238.343 143.046 240.192 144.772 242.575C146.498 244.876 147.361 247.957 147.361 251.82V284.978C147.361 287.854 147.525 290.607 147.854 293.237C148.182 295.866 148.758 297.839 149.579 299.154H131.829C131.5 298.167 131.213 297.181 130.966 296.195C130.802 295.127 130.679 294.059 130.596 292.99C127.802 295.866 124.515 297.88 120.735 299.03C116.955 300.181 113.093 300.756 109.148 300.756C106.108 300.756 103.273 300.386 100.643 299.647C98.0133 298.907 95.7124 297.757 93.7401 296.195C91.7679 294.634 90.2065 292.662 89.056 290.278C87.9877 287.895 87.4536 285.06 87.4536 281.773C87.4536 278.157 88.0699 275.199 89.3026 272.898C90.6174 270.515 92.2609 268.625 94.2332 267.228C96.2876 265.831 98.5886 264.804 101.136 264.146C103.766 263.407 106.395 262.831 109.025 262.42C111.655 262.01 114.243 261.681 116.791 261.434C119.338 261.188 121.598 260.818 123.57 260.325C125.543 259.832 127.104 259.133 128.254 258.229C129.405 257.243 129.939 255.846 129.857 254.038C129.857 252.148 129.528 250.669 128.871 249.601C128.296 248.45 127.474 247.588 126.405 247.012C125.419 246.355 124.228 245.944 122.831 245.78C121.516 245.533 120.078 245.41 118.516 245.41C115.065 245.41 112.353 246.149 110.381 247.629C108.409 249.108 107.258 251.573 106.93 255.025H89.4258ZM129.857 267.967C129.117 268.625 128.172 269.159 127.022 269.57C125.953 269.899 124.762 270.186 123.447 270.433C122.214 270.679 120.9 270.885 119.503 271.049C118.106 271.213 116.709 271.419 115.312 271.665C113.997 271.912 112.682 272.241 111.367 272.651C110.134 273.062 109.025 273.638 108.039 274.377C107.135 275.035 106.395 275.897 105.82 276.966C105.245 278.034 104.957 279.39 104.957 281.034C104.957 282.595 105.245 283.91 105.82 284.978C106.395 286.046 107.176 286.909 108.162 287.567C109.148 288.142 110.299 288.553 111.614 288.799C112.928 289.046 114.284 289.169 115.681 289.169C119.133 289.169 121.804 288.594 123.694 287.443C125.584 286.293 126.981 284.937 127.885 283.376C128.789 281.732 129.323 280.089 129.487 278.445C129.734 276.801 129.857 275.487 129.857 274.5V267.967ZM192.503 299.154H173.027L151.209 235.425H169.575L183.011 278.938H183.258L196.694 235.425H214.074L192.503 299.154ZM235.588 225.564H218.084V211.142H235.588V225.564ZM218.084 235.425H235.588V299.154H218.084V235.425ZM245.673 235.425H262.313V244.3H262.683C264.902 240.602 267.778 237.932 271.312 236.288C274.845 234.562 278.461 233.7 282.159 233.7C286.843 233.7 290.664 234.357 293.623 235.672C296.663 236.904 299.046 238.671 300.772 240.972C302.498 243.191 303.689 245.944 304.347 249.231C305.086 252.436 305.456 256.011 305.456 259.955V299.154H287.953V263.16C287.953 257.901 287.131 253.997 285.487 251.45C283.844 248.82 280.926 247.505 276.735 247.505C271.969 247.505 268.518 248.943 266.381 251.82C264.245 254.614 263.176 259.257 263.176 265.749V299.154H245.673V235.425ZM344.75 284.115C347.215 284.115 349.393 283.622 351.283 282.636C353.173 281.65 354.735 280.335 355.967 278.691C357.2 277.048 358.104 275.199 358.679 273.145C359.336 271.008 359.665 268.789 359.665 266.488C359.665 263.859 359.419 261.393 358.926 259.092C358.433 256.709 357.611 254.614 356.46 252.806C355.31 250.998 353.79 249.56 351.899 248.491C350.009 247.423 347.626 246.889 344.75 246.889C342.285 246.889 340.148 247.382 338.34 248.368C336.615 249.354 335.135 250.71 333.903 252.436C332.752 254.079 331.889 256.011 331.314 258.229C330.821 260.366 330.575 262.626 330.575 265.009C330.575 267.31 330.78 269.611 331.191 271.912C331.684 274.131 332.465 276.144 333.533 277.952C334.683 279.76 336.163 281.239 337.97 282.389C339.778 283.54 342.038 284.115 344.75 284.115ZM376.306 295.086C376.306 297.633 375.936 300.551 375.197 303.838C374.539 307.125 373.06 310.165 370.759 312.959C368.458 315.835 365.13 318.26 360.775 320.232C356.419 322.204 350.585 323.19 343.271 323.19C340.148 323.19 336.943 322.779 333.656 321.958C330.451 321.218 327.493 320.027 324.781 318.383C322.151 316.739 319.933 314.603 318.125 311.973C316.399 309.426 315.413 306.344 315.166 302.728H332.547C333.369 306.015 334.971 308.275 337.354 309.508C339.737 310.823 342.49 311.48 345.613 311.48C350.544 311.48 354.118 310.001 356.337 307.043C358.638 304.084 359.747 300.345 359.665 295.825V287.443H359.419C357.529 290.813 354.817 293.319 351.283 294.963C347.832 296.524 344.175 297.305 340.312 297.305C335.546 297.305 331.437 296.483 327.986 294.839C324.534 293.114 321.699 290.813 319.481 287.936C317.262 284.978 315.618 281.568 314.55 277.705C313.564 273.761 313.071 269.611 313.071 265.256C313.071 261.147 313.646 257.202 314.797 253.422C316.029 249.56 317.796 246.19 320.097 243.314C322.398 240.356 325.233 238.014 328.602 236.288C332.054 234.562 335.998 233.7 340.436 233.7C344.627 233.7 348.284 234.48 351.406 236.042C354.611 237.603 357.282 240.233 359.419 243.931H359.665V235.425H376.306V295.086ZM400.26 278.445C400.26 280.335 400.63 281.979 401.369 283.376C402.191 284.69 403.218 285.8 404.451 286.704C405.684 287.526 407.081 288.142 408.642 288.553C410.286 288.964 411.97 289.169 413.696 289.169C414.929 289.169 416.202 289.046 417.517 288.799C418.914 288.471 420.147 288.019 421.215 287.443C422.366 286.786 423.311 285.964 424.05 284.978C424.79 283.91 425.16 282.595 425.16 281.034C425.16 278.404 423.393 276.432 419.859 275.117C416.408 273.802 411.559 272.487 405.314 271.172C402.766 270.597 400.26 269.94 397.795 269.2C395.411 268.378 393.275 267.351 391.385 266.118C389.495 264.804 387.974 263.201 386.824 261.311C385.674 259.339 385.098 256.956 385.098 254.162C385.098 250.053 385.879 246.684 387.44 244.054C389.084 241.424 391.22 239.37 393.85 237.891C396.48 236.329 399.438 235.261 402.725 234.686C406.012 234.028 409.382 233.7 412.833 233.7C416.284 233.7 419.613 234.028 422.818 234.686C426.105 235.343 429.022 236.453 431.569 238.014C434.117 239.575 436.212 241.671 437.856 244.3C439.582 246.848 440.609 250.094 440.938 254.038H424.297C424.05 250.669 422.776 248.409 420.475 247.259C418.175 246.026 415.463 245.41 412.34 245.41C411.354 245.41 410.286 245.492 409.135 245.656C407.985 245.739 406.916 245.985 405.93 246.396C405.026 246.807 404.246 247.423 403.588 248.245C402.931 248.985 402.602 250.012 402.602 251.327C402.602 252.888 403.177 254.162 404.328 255.148C405.478 256.134 406.957 256.956 408.765 257.613C410.655 258.188 412.792 258.722 415.175 259.216C417.558 259.709 419.982 260.243 422.448 260.818C424.995 261.393 427.461 262.092 429.844 262.914C432.309 263.735 434.487 264.845 436.377 266.242C438.267 267.557 439.787 269.241 440.938 271.296C442.088 273.268 442.663 275.733 442.663 278.691C442.663 282.883 441.8 286.416 440.075 289.292C438.431 292.086 436.253 294.346 433.542 296.072C430.83 297.798 427.707 298.989 424.173 299.647C420.722 300.386 417.188 300.756 413.573 300.756C409.875 300.756 406.259 300.386 402.725 299.647C399.192 298.907 396.028 297.674 393.234 295.949C390.522 294.223 388.262 291.963 386.454 289.169C384.728 286.293 383.783 282.718 383.619 278.445H400.26Z" fill="white"/>
<path d="M131.319 329.145H146.379V333.105H136.029V338.055H144.999V341.715H136.029V350.565H131.319V329.145ZM148.652 335.055H152.702V337.935H152.762C152.962 337.455 153.232 337.015 153.572 336.615C153.912 336.195 154.302 335.845 154.742 335.565C155.182 335.265 155.652 335.035 156.152 334.875C156.652 334.715 157.172 334.635 157.712 334.635C157.992 334.635 158.302 334.685 158.642 334.785V338.745C158.442 338.705 158.202 338.675 157.922 338.655C157.642 338.615 157.372 338.595 157.112 338.595C156.332 338.595 155.672 338.725 155.132 338.985C154.592 339.245 154.152 339.605 153.812 340.065C153.492 340.505 153.262 341.025 153.122 341.625C152.982 342.225 152.912 342.875 152.912 343.575V350.565H148.652V335.055ZM170.225 341.145C170.025 340.065 169.665 339.245 169.145 338.685C168.645 338.125 167.875 337.845 166.835 337.845C166.155 337.845 165.585 337.965 165.125 338.205C164.685 338.425 164.325 338.705 164.045 339.045C163.785 339.385 163.595 339.745 163.475 340.125C163.375 340.505 163.315 340.845 163.295 341.145H170.225ZM163.295 343.845C163.355 345.225 163.705 346.225 164.345 346.845C164.985 347.465 165.905 347.775 167.105 347.775C167.965 347.775 168.705 347.565 169.325 347.145C169.945 346.705 170.325 346.245 170.465 345.765H174.215C173.615 347.625 172.695 348.955 171.455 349.755C170.215 350.555 168.715 350.955 166.955 350.955C165.735 350.955 164.635 350.765 163.655 350.385C162.675 349.985 161.845 349.425 161.165 348.705C160.485 347.985 159.955 347.125 159.575 346.125C159.215 345.125 159.035 344.025 159.035 342.825C159.035 341.665 159.225 340.585 159.605 339.585C159.985 338.585 160.525 337.725 161.225 337.005C161.925 336.265 162.755 335.685 163.715 335.265C164.695 334.845 165.775 334.635 166.955 334.635C168.275 334.635 169.425 334.895 170.405 335.415C171.385 335.915 172.185 336.595 172.805 337.455C173.445 338.315 173.905 339.295 174.185 340.395C174.465 341.495 174.565 342.645 174.485 343.845H163.295ZM180.312 345.525C180.312 345.985 180.402 346.385 180.582 346.725C180.782 347.045 181.032 347.315 181.332 347.535C181.632 347.735 181.972 347.885 182.352 347.985C182.752 348.085 183.162 348.135 183.582 348.135C183.882 348.135 184.192 348.105 184.512 348.045C184.852 347.965 185.152 347.855 185.412 347.715C185.692 347.555 185.922 347.355 186.102 347.115C186.282 346.855 186.372 346.535 186.372 346.155C186.372 345.515 185.942 345.035 185.082 344.715C184.242 344.395 183.062 344.075 181.542 343.755C180.922 343.615 180.312 343.455 179.712 343.275C179.132 343.075 178.612 342.825 178.152 342.525C177.692 342.205 177.322 341.815 177.042 341.355C176.762 340.875 176.622 340.295 176.622 339.615C176.622 338.615 176.812 337.795 177.192 337.155C177.592 336.515 178.112 336.015 178.752 335.655C179.392 335.275 180.112 335.015 180.912 334.875C181.712 334.715 182.532 334.635 183.372 334.635C184.212 334.635 185.022 334.715 185.802 334.875C186.602 335.035 187.312 335.305 187.932 335.685C188.552 336.065 189.062 336.575 189.462 337.215C189.882 337.835 190.132 338.625 190.212 339.585H186.162C186.102 338.765 185.792 338.215 185.232 337.935C184.672 337.635 184.012 337.485 183.252 337.485C183.012 337.485 182.752 337.505 182.472 337.545C182.192 337.565 181.932 337.625 181.692 337.725C181.472 337.825 181.282 337.975 181.122 338.175C180.962 338.355 180.882 338.605 180.882 338.925C180.882 339.305 181.022 339.615 181.302 339.855C181.582 340.095 181.942 340.295 182.382 340.455C182.842 340.595 183.362 340.725 183.942 340.845C184.522 340.965 185.112 341.095 185.712 341.235C186.332 341.375 186.932 341.545 187.512 341.745C188.112 341.945 188.642 342.215 189.102 342.555C189.562 342.875 189.932 343.285 190.212 343.785C190.492 344.265 190.632 344.865 190.632 345.585C190.632 346.605 190.422 347.465 190.002 348.165C189.602 348.845 189.072 349.395 188.412 349.815C187.752 350.235 186.992 350.525 186.132 350.685C185.292 350.865 184.432 350.955 183.552 350.955C182.652 350.955 181.772 350.865 180.912 350.685C180.052 350.505 179.282 350.205 178.602 349.785C177.942 349.365 177.392 348.815 176.952 348.135C176.532 347.435 176.302 346.565 176.262 345.525H180.312ZM193.125 329.145H197.385V337.215H197.475C198.015 336.315 198.705 335.665 199.545 335.265C200.385 334.845 201.205 334.635 202.005 334.635C203.145 334.635 204.075 334.795 204.795 335.115C205.535 335.415 206.115 335.845 206.535 336.405C206.955 336.945 207.245 337.615 207.405 338.415C207.585 339.195 207.675 340.065 207.675 341.025V350.565H203.415V341.805C203.415 340.525 203.215 339.575 202.815 338.955C202.415 338.315 201.705 337.995 200.685 337.995C199.525 337.995 198.685 338.345 198.165 339.045C197.645 339.725 197.385 340.855 197.385 342.435V350.565H193.125V329.145ZM230.268 342.765C230.268 342.125 230.208 341.515 230.088 340.935C229.968 340.335 229.758 339.815 229.458 339.375C229.178 338.915 228.808 338.545 228.348 338.265C227.888 337.985 227.308 337.845 226.608 337.845C225.908 337.845 225.318 337.985 224.838 338.265C224.358 338.545 223.968 338.915 223.668 339.375C223.388 339.835 223.178 340.365 223.038 340.965C222.918 341.545 222.858 342.155 222.858 342.795C222.858 343.395 222.928 343.995 223.068 344.595C223.208 345.195 223.428 345.735 223.728 346.215C224.048 346.675 224.438 347.055 224.898 347.355C225.378 347.635 225.948 347.775 226.608 347.775C227.308 347.775 227.888 347.635 228.348 347.355C228.828 347.075 229.208 346.705 229.488 346.245C229.768 345.765 229.968 345.225 230.088 344.625C230.208 344.025 230.268 343.405 230.268 342.765ZM230.328 348.585H230.268C229.768 349.425 229.108 350.035 228.288 350.415C227.488 350.775 226.578 350.955 225.558 350.955C224.398 350.955 223.378 350.735 222.498 350.295C221.618 349.835 220.888 349.225 220.308 348.465C219.748 347.685 219.318 346.795 219.018 345.795C218.738 344.795 218.598 343.755 218.598 342.675C218.598 341.635 218.738 340.635 219.018 339.675C219.318 338.695 219.748 337.835 220.308 337.095C220.888 336.355 221.608 335.765 222.468 335.325C223.328 334.865 224.328 334.635 225.468 334.635C226.388 334.635 227.258 334.835 228.078 335.235C228.918 335.615 229.578 336.185 230.058 336.945H230.118V329.145H234.378V350.565H230.328V348.585ZM248.038 341.145C247.838 340.065 247.478 339.245 246.958 338.685C246.458 338.125 245.688 337.845 244.648 337.845C243.968 337.845 243.398 337.965 242.938 338.205C242.498 338.425 242.138 338.705 241.858 339.045C241.598 339.385 241.408 339.745 241.288 340.125C241.188 340.505 241.128 340.845 241.108 341.145H248.038ZM241.108 343.845C241.168 345.225 241.518 346.225 242.158 346.845C242.798 347.465 243.718 347.775 244.918 347.775C245.778 347.775 246.518 347.565 247.138 347.145C247.758 346.705 248.138 346.245 248.278 345.765H252.028C251.428 347.625 250.508 348.955 249.268 349.755C248.028 350.555 246.528 350.955 244.768 350.955C243.548 350.955 242.448 350.765 241.468 350.385C240.488 349.985 239.658 349.425 238.978 348.705C238.298 347.985 237.768 347.125 237.388 346.125C237.028 345.125 236.848 344.025 236.848 342.825C236.848 341.665 237.038 340.585 237.418 339.585C237.798 338.585 238.338 337.725 239.038 337.005C239.738 336.265 240.568 335.685 241.528 335.265C242.508 334.845 243.588 334.635 244.768 334.635C246.088 334.635 247.238 334.895 248.218 335.415C249.198 335.915 249.998 336.595 250.618 337.455C251.258 338.315 251.718 339.295 251.998 340.395C252.278 341.495 252.378 342.645 252.298 343.845H241.108ZM254.644 339.825C254.704 338.825 254.954 337.995 255.394 337.335C255.834 336.675 256.394 336.145 257.074 335.745C257.754 335.345 258.514 335.065 259.354 334.905C260.214 334.725 261.074 334.635 261.934 334.635C262.714 334.635 263.504 334.695 264.304 334.815C265.104 334.915 265.834 335.125 266.494 335.445C267.154 335.765 267.694 336.215 268.114 336.795C268.534 337.355 268.744 338.105 268.744 339.045V347.115C268.744 347.815 268.784 348.485 268.864 349.125C268.944 349.765 269.084 350.245 269.284 350.565H264.964C264.884 350.325 264.814 350.085 264.754 349.845C264.714 349.585 264.684 349.325 264.664 349.065C263.984 349.765 263.184 350.255 262.264 350.535C261.344 350.815 260.404 350.955 259.444 350.955C258.704 350.955 258.014 350.865 257.374 350.685C256.734 350.505 256.174 350.225 255.694 349.845C255.214 349.465 254.834 348.985 254.554 348.405C254.294 347.825 254.164 347.135 254.164 346.335C254.164 345.455 254.314 344.735 254.614 344.175C254.934 343.595 255.334 343.135 255.814 342.795C256.314 342.455 256.874 342.205 257.494 342.045C258.134 341.865 258.774 341.725 259.414 341.625C260.054 341.525 260.684 341.445 261.304 341.385C261.924 341.325 262.474 341.235 262.954 341.115C263.434 340.995 263.814 340.825 264.094 340.605C264.374 340.365 264.504 340.025 264.484 339.585C264.484 339.125 264.404 338.765 264.244 338.505C264.104 338.225 263.904 338.015 263.644 337.875C263.404 337.715 263.114 337.615 262.774 337.575C262.454 337.515 262.104 337.485 261.724 337.485C260.884 337.485 260.224 337.665 259.744 338.025C259.264 338.385 258.984 338.985 258.904 339.825H254.644ZM264.484 342.975C264.304 343.135 264.074 343.265 263.794 343.365C263.534 343.445 263.244 343.515 262.924 343.575C262.624 343.635 262.304 343.685 261.964 343.725C261.624 343.765 261.284 343.815 260.944 343.875C260.624 343.935 260.304 344.015 259.984 344.115C259.684 344.215 259.414 344.355 259.174 344.535C258.954 344.695 258.774 344.905 258.634 345.165C258.494 345.425 258.424 345.755 258.424 346.155C258.424 346.535 258.494 346.855 258.634 347.115C258.774 347.375 258.964 347.585 259.204 347.745C259.444 347.885 259.724 347.985 260.044 348.045C260.364 348.105 260.694 348.135 261.034 348.135C261.874 348.135 262.524 347.995 262.984 347.715C263.444 347.435 263.784 347.105 264.004 346.725C264.224 346.325 264.354 345.925 264.394 345.525C264.454 345.125 264.484 344.805 264.484 344.565V342.975ZM272.171 329.145H276.431V350.565H272.171V329.145ZM283.085 345.525C283.085 345.985 283.175 346.385 283.355 346.725C283.555 347.045 283.805 347.315 284.105 347.535C284.405 347.735 284.745 347.885 285.125 347.985C285.525 348.085 285.935 348.135 286.355 348.135C286.655 348.135 286.965 348.105 287.285 348.045C287.625 347.965 287.925 347.855 288.185 347.715C288.465 347.555 288.695 347.355 288.875 347.115C289.055 346.855 289.145 346.535 289.145 346.155C289.145 345.515 288.715 345.035 287.855 344.715C287.015 344.395 285.835 344.075 284.315 343.755C283.695 343.615 283.085 343.455 282.485 343.275C281.905 343.075 281.385 342.825 280.925 342.525C280.465 342.205 280.095 341.815 279.815 341.355C279.535 340.875 279.395 340.295 279.395 339.615C279.395 338.615 279.585 337.795 279.965 337.155C280.365 336.515 280.885 336.015 281.525 335.655C282.165 335.275 282.885 335.015 283.685 334.875C284.485 334.715 285.305 334.635 286.145 334.635C286.985 334.635 287.795 334.715 288.575 334.875C289.375 335.035 290.085 335.305 290.705 335.685C291.325 336.065 291.835 336.575 292.235 337.215C292.655 337.835 292.905 338.625 292.985 339.585H288.935C288.875 338.765 288.565 338.215 288.005 337.935C287.445 337.635 286.785 337.485 286.025 337.485C285.785 337.485 285.525 337.505 285.245 337.545C284.965 337.565 284.705 337.625 284.465 337.725C284.245 337.825 284.055 337.975 283.895 338.175C283.735 338.355 283.655 338.605 283.655 338.925C283.655 339.305 283.795 339.615 284.075 339.855C284.355 340.095 284.715 340.295 285.155 340.455C285.615 340.595 286.135 340.725 286.715 340.845C287.295 340.965 287.885 341.095 288.485 341.235C289.105 341.375 289.705 341.545 290.285 341.745C290.885 341.945 291.415 342.215 291.875 342.555C292.335 342.875 292.705 343.285 292.985 343.785C293.265 344.265 293.405 344.865 293.405 345.585C293.405 346.605 293.195 347.465 292.775 348.165C292.375 348.845 291.845 349.395 291.185 349.815C290.525 350.235 289.765 350.525 288.905 350.685C288.065 350.865 287.205 350.955 286.325 350.955C285.425 350.955 284.545 350.865 283.685 350.685C282.825 350.505 282.055 350.205 281.375 349.785C280.715 349.365 280.165 348.815 279.725 348.135C279.305 347.435 279.075 346.565 279.035 345.525H283.085ZM308.028 342.825C308.028 343.445 308.088 344.055 308.208 344.655C308.328 345.235 308.528 345.765 308.808 346.245C309.108 346.705 309.498 347.075 309.978 347.355C310.458 347.635 311.058 347.775 311.778 347.775C312.498 347.775 313.098 347.635 313.578 347.355C314.078 347.075 314.468 346.705 314.748 346.245C315.048 345.765 315.258 345.235 315.378 344.655C315.498 344.055 315.558 343.445 315.558 342.825C315.558 342.205 315.498 341.595 315.378 340.995C315.258 340.395 315.048 339.865 314.748 339.405C314.468 338.945 314.078 338.575 313.578 338.295C313.098 337.995 312.498 337.845 311.778 337.845C311.058 337.845 310.458 337.995 309.978 338.295C309.498 338.575 309.108 338.945 308.808 339.405C308.528 339.865 308.328 340.395 308.208 340.995C308.088 341.595 308.028 342.205 308.028 342.825ZM303.768 342.825C303.768 341.585 303.958 340.465 304.338 339.465C304.718 338.445 305.258 337.585 305.958 336.885C306.658 336.165 307.498 335.615 308.478 335.235C309.458 334.835 310.558 334.635 311.778 334.635C312.998 334.635 314.098 334.835 315.078 335.235C316.078 335.615 316.928 336.165 317.628 336.885C318.328 337.585 318.868 338.445 319.248 339.465C319.628 340.465 319.818 341.585 319.818 342.825C319.818 344.065 319.628 345.185 319.248 346.185C318.868 347.185 318.328 348.045 317.628 348.765C316.928 349.465 316.078 350.005 315.078 350.385C314.098 350.765 312.998 350.955 311.778 350.955C310.558 350.955 309.458 350.765 308.478 350.385C307.498 350.005 306.658 349.465 305.958 348.765C305.258 348.045 304.718 347.185 304.338 346.185C303.958 345.185 303.768 344.065 303.768 342.825ZM322.588 335.055H326.638V337.215H326.728C327.268 336.315 327.968 335.665 328.828 335.265C329.688 334.845 330.568 334.635 331.468 334.635C332.608 334.635 333.538 334.795 334.258 335.115C334.998 335.415 335.578 335.845 335.998 336.405C336.418 336.945 336.708 337.615 336.868 338.415C337.048 339.195 337.138 340.065 337.138 341.025V350.565H332.878V341.805C332.878 340.525 332.678 339.575 332.278 338.955C331.878 338.315 331.168 337.995 330.148 337.995C328.988 337.995 328.148 338.345 327.628 339.045C327.108 339.725 326.848 340.855 326.848 342.435V350.565H322.588V335.055ZM114.203 379.525C114.203 379.985 114.293 380.385 114.473 380.725C114.673 381.045 114.923 381.315 115.223 381.535C115.523 381.735 115.863 381.885 116.243 381.985C116.643 382.085 117.053 382.135 117.473 382.135C117.773 382.135 118.083 382.105 118.403 382.045C118.743 381.965 119.043 381.855 119.303 381.715C119.583 381.555 119.813 381.355 119.993 381.115C120.173 380.855 120.263 380.535 120.263 380.155C120.263 379.515 119.833 379.035 118.973 378.715C118.133 378.395 116.953 378.075 115.433 377.755C114.813 377.615 114.203 377.455 113.603 377.275C113.023 377.075 112.503 376.825 112.043 376.525C111.583 376.205 111.213 375.815 110.933 375.355C110.653 374.875 110.513 374.295 110.513 373.615C110.513 372.615 110.703 371.795 111.083 371.155C111.483 370.515 112.003 370.015 112.643 369.655C113.283 369.275 114.003 369.015 114.803 368.875C115.603 368.715 116.423 368.635 117.263 368.635C118.103 368.635 118.913 368.715 119.693 368.875C120.493 369.035 121.203 369.305 121.823 369.685C122.443 370.065 122.953 370.575 123.353 371.215C123.773 371.835 124.023 372.625 124.103 373.585H120.053C119.993 372.765 119.683 372.215 119.123 371.935C118.563 371.635 117.903 371.485 117.143 371.485C116.903 371.485 116.643 371.505 116.363 371.545C116.083 371.565 115.823 371.625 115.583 371.725C115.363 371.825 115.173 371.975 115.013 372.175C114.853 372.355 114.773 372.605 114.773 372.925C114.773 373.305 114.913 373.615 115.193 373.855C115.473 374.095 115.833 374.295 116.273 374.455C116.733 374.595 117.253 374.725 117.833 374.845C118.413 374.965 119.003 375.095 119.603 375.235C120.223 375.375 120.823 375.545 121.403 375.745C122.003 375.945 122.533 376.215 122.993 376.555C123.453 376.875 123.823 377.285 124.103 377.785C124.383 378.265 124.523 378.865 124.523 379.585C124.523 380.605 124.313 381.465 123.893 382.165C123.493 382.845 122.963 383.395 122.303 383.815C121.643 384.235 120.883 384.525 120.023 384.685C119.183 384.865 118.323 384.955 117.443 384.955C116.543 384.955 115.663 384.865 114.803 384.685C113.943 384.505 113.173 384.205 112.493 383.785C111.833 383.365 111.283 382.815 110.843 382.135C110.423 381.435 110.193 380.565 110.153 379.525H114.203ZM141.566 384.565H137.516V382.405H137.426C136.886 383.305 136.186 383.955 135.326 384.355C134.466 384.755 133.586 384.955 132.686 384.955C131.546 384.955 130.606 384.805 129.866 384.505C129.146 384.205 128.576 383.785 128.156 383.245C127.736 382.685 127.436 382.015 127.256 381.235C127.096 380.435 127.016 379.555 127.016 378.595V369.055H131.276V377.815C131.276 379.095 131.476 380.055 131.876 380.695C132.276 381.315 132.986 381.625 134.006 381.625C135.166 381.625 136.006 381.285 136.526 380.605C137.046 379.905 137.306 378.765 137.306 377.185V369.055H141.566V384.565ZM144.92 369.055H148.94V371.155H149C149.56 370.355 150.23 369.735 151.01 369.295C151.81 368.855 152.72 368.635 153.74 368.635C154.72 368.635 155.61 368.825 156.41 369.205C157.23 369.585 157.85 370.255 158.27 371.215C158.73 370.535 159.35 369.935 160.13 369.415C160.93 368.895 161.87 368.635 162.95 368.635C163.77 368.635 164.53 368.735 165.23 368.935C165.93 369.135 166.53 369.455 167.03 369.895C167.53 370.335 167.92 370.915 168.2 371.635C168.48 372.335 168.62 373.185 168.62 374.185V384.565H164.36V375.775C164.36 375.255 164.34 374.765 164.3 374.305C164.26 373.845 164.15 373.445 163.97 373.105C163.79 372.765 163.52 372.495 163.16 372.295C162.82 372.095 162.35 371.995 161.75 371.995C161.15 371.995 160.66 372.115 160.28 372.355C159.92 372.575 159.63 372.875 159.41 373.255C159.21 373.615 159.07 374.035 158.99 374.515C158.93 374.975 158.9 375.445 158.9 375.925V384.565H154.64V375.865C154.64 375.405 154.63 374.955 154.61 374.515C154.59 374.055 154.5 373.635 154.34 373.255C154.2 372.875 153.95 372.575 153.59 372.355C153.25 372.115 152.74 371.995 152.06 371.995C151.86 371.995 151.59 372.045 151.25 372.145C150.93 372.225 150.61 372.395 150.29 372.655C149.99 372.895 149.73 373.255 149.51 373.735C149.29 374.195 149.18 374.805 149.18 375.565V384.565H144.92V369.055ZM172.107 369.055H176.127V371.155H176.187C176.747 370.355 177.417 369.735 178.197 369.295C178.997 368.855 179.907 368.635 180.927 368.635C181.907 368.635 182.797 368.825 183.597 369.205C184.417 369.585 185.037 370.255 185.457 371.215C185.917 370.535 186.537 369.935 187.317 369.415C188.117 368.895 189.057 368.635 190.137 368.635C190.957 368.635 191.717 368.735 192.417 368.935C193.117 369.135 193.717 369.455 194.217 369.895C194.717 370.335 195.107 370.915 195.387 371.635C195.667 372.335 195.807 373.185 195.807 374.185V384.565H191.547V375.775C191.547 375.255 191.527 374.765 191.487 374.305C191.447 373.845 191.337 373.445 191.157 373.105C190.977 372.765 190.707 372.495 190.347 372.295C190.007 372.095 189.537 371.995 188.937 371.995C188.337 371.995 187.847 372.115 187.467 372.355C187.107 372.575 186.817 372.875 186.597 373.255C186.397 373.615 186.257 374.035 186.177 374.515C186.117 374.975 186.087 375.445 186.087 375.925V384.565H181.827V375.865C181.827 375.405 181.817 374.955 181.797 374.515C181.777 374.055 181.687 373.635 181.527 373.255C181.387 372.875 181.137 372.575 180.777 372.355C180.437 372.115 179.927 371.995 179.247 371.995C179.047 371.995 178.777 372.045 178.437 372.145C178.117 372.225 177.797 372.395 177.477 372.655C177.177 372.895 176.917 373.255 176.697 373.735C176.477 374.195 176.367 374.805 176.367 375.565V384.565H172.107V369.055ZM209.615 375.145C209.415 374.065 209.055 373.245 208.535 372.685C208.035 372.125 207.265 371.845 206.225 371.845C205.545 371.845 204.975 371.965 204.515 372.205C204.075 372.425 203.715 372.705 203.435 373.045C203.175 373.385 202.985 373.745 202.865 374.125C202.765 374.505 202.705 374.845 202.685 375.145H209.615ZM202.685 377.845C202.745 379.225 203.095 380.225 203.735 380.845C204.375 381.465 205.295 381.775 206.495 381.775C207.355 381.775 208.095 381.565 208.715 381.145C209.335 380.705 209.715 380.245 209.855 379.765H213.605C213.005 381.625 212.085 382.955 210.845 383.755C209.605 384.555 208.105 384.955 206.345 384.955C205.125 384.955 204.025 384.765 203.045 384.385C202.065 383.985 201.235 383.425 200.555 382.705C199.875 381.985 199.345 381.125 198.965 380.125C198.605 379.125 198.425 378.025 198.425 376.825C198.425 375.665 198.615 374.585 198.995 373.585C199.375 372.585 199.915 371.725 200.615 371.005C201.315 370.265 202.145 369.685 203.105 369.265C204.085 368.845 205.165 368.635 206.345 368.635C207.665 368.635 208.815 368.895 209.795 369.415C210.775 369.915 211.575 370.595 212.195 371.455C212.835 372.315 213.295 373.295 213.575 374.395C213.855 375.495 213.955 376.645 213.875 377.845H202.685ZM216.401 369.055H220.451V371.935H220.511C220.711 371.455 220.981 371.015 221.321 370.615C221.661 370.195 222.051 369.845 222.491 369.565C222.931 369.265 223.401 369.035 223.901 368.875C224.401 368.715 224.921 368.635 225.461 368.635C225.741 368.635 226.051 368.685 226.391 368.785V372.745C226.191 372.705 225.951 372.675 225.671 372.655C225.391 372.615 225.121 372.595 224.861 372.595C224.081 372.595 223.421 372.725 222.881 372.985C222.341 373.245 221.901 373.605 221.561 374.065C221.241 374.505 221.011 375.025 220.871 375.625C220.731 376.225 220.661 376.875 220.661 377.575V384.565H216.401V369.055ZM250.961 384.565H246.911V382.405H246.821C246.281 383.305 245.581 383.955 244.721 384.355C243.861 384.755 242.981 384.955 242.081 384.955C240.941 384.955 240.001 384.805 239.261 384.505C238.541 384.205 237.971 383.785 237.551 383.245C237.131 382.685 236.831 382.015 236.651 381.235C236.491 380.435 236.411 379.555 236.411 378.595V369.055H240.671V377.815C240.671 379.095 240.871 380.055 241.271 380.695C241.671 381.315 242.381 381.625 243.401 381.625C244.561 381.625 245.401 381.285 245.921 380.605C246.441 379.905 246.701 378.765 246.701 377.185V369.055H250.961V384.565ZM262.024 381.775C262.724 381.775 263.304 381.635 263.764 381.355C264.244 381.075 264.624 380.715 264.904 380.275C265.204 379.815 265.414 379.285 265.534 378.685C265.654 378.085 265.714 377.475 265.714 376.855C265.714 376.235 265.644 375.625 265.504 375.025C265.384 374.425 265.174 373.895 264.874 373.435C264.574 372.955 264.184 372.575 263.704 372.295C263.244 371.995 262.674 371.845 261.994 371.845C261.294 371.845 260.704 371.995 260.224 372.295C259.764 372.575 259.384 372.945 259.084 373.405C258.804 373.865 258.604 374.395 258.484 374.995C258.364 375.595 258.304 376.215 258.304 376.855C258.304 377.475 258.364 378.085 258.484 378.685C258.624 379.285 258.834 379.815 259.114 380.275C259.414 380.715 259.804 381.075 260.284 381.355C260.764 381.635 261.344 381.775 262.024 381.775ZM254.194 369.055H258.244V371.035H258.304C258.824 370.195 259.484 369.585 260.284 369.205C261.084 368.825 261.964 368.635 262.924 368.635C264.144 368.635 265.194 368.865 266.074 369.325C266.954 369.785 267.684 370.395 268.264 371.155C268.844 371.915 269.274 372.805 269.554 373.825C269.834 374.825 269.974 375.875 269.974 376.975C269.974 378.015 269.834 379.015 269.554 379.975C269.274 380.935 268.844 381.785 268.264 382.525C267.704 383.265 266.994 383.855 266.134 384.295C265.294 384.735 264.304 384.955 263.164 384.955C262.204 384.955 261.314 384.765 260.494 384.385C259.694 383.985 259.034 383.405 258.514 382.645H258.454V389.995H254.194V369.055ZM283.544 376.765C283.544 376.125 283.484 375.515 283.364 374.935C283.244 374.335 283.034 373.815 282.734 373.375C282.454 372.915 282.084 372.545 281.624 372.265C281.164 371.985 280.584 371.845 279.884 371.845C279.184 371.845 278.594 371.985 278.114 372.265C277.634 372.545 277.244 372.915 276.944 373.375C276.664 373.835 276.454 374.365 276.314 374.965C276.194 375.545 276.134 376.155 276.134 376.795C276.134 377.395 276.204 377.995 276.344 378.595C276.484 379.195 276.704 379.735 277.004 380.215C277.324 380.675 277.714 381.055 278.174 381.355C278.654 381.635 279.224 381.775 279.884 381.775C280.584 381.775 281.164 381.635 281.624 381.355C282.104 381.075 282.484 380.705 282.764 380.245C283.044 379.765 283.244 379.225 283.364 378.625C283.484 378.025 283.544 377.405 283.544 376.765ZM283.604 382.585H283.544C283.044 383.425 282.384 384.035 281.564 384.415C280.764 384.775 279.854 384.955 278.834 384.955C277.674 384.955 276.654 384.735 275.774 384.295C274.894 383.835 274.164 383.225 273.584 382.465C273.024 381.685 272.594 380.795 272.294 379.795C272.014 378.795 271.874 377.755 271.874 376.675C271.874 375.635 272.014 374.635 272.294 373.675C272.594 372.695 273.024 371.835 273.584 371.095C274.164 370.355 274.884 369.765 275.744 369.325C276.604 368.865 277.604 368.635 278.744 368.635C279.664 368.635 280.534 368.835 281.354 369.235C282.194 369.615 282.854 370.185 283.334 370.945H283.394V363.145H287.654V384.565H283.604V382.585ZM290.694 373.825C290.754 372.825 291.004 371.995 291.444 371.335C291.884 370.675 292.444 370.145 293.124 369.745C293.804 369.345 294.564 369.065 295.404 368.905C296.264 368.725 297.124 368.635 297.984 368.635C298.764 368.635 299.554 368.695 300.354 368.815C301.154 368.915 301.884 369.125 302.544 369.445C303.204 369.765 303.744 370.215 304.164 370.795C304.584 371.355 304.794 372.105 304.794 373.045V381.115C304.794 381.815 304.834 382.485 304.914 383.125C304.994 383.765 305.134 384.245 305.334 384.565H301.014C300.934 384.325 300.864 384.085 300.804 383.845C300.764 383.585 300.734 383.325 300.714 383.065C300.034 383.765 299.234 384.255 298.314 384.535C297.394 384.815 296.454 384.955 295.494 384.955C294.754 384.955 294.064 384.865 293.424 384.685C292.784 384.505 292.224 384.225 291.744 383.845C291.264 383.465 290.884 382.985 290.604 382.405C290.344 381.825 290.214 381.135 290.214 380.335C290.214 379.455 290.364 378.735 290.664 378.175C290.984 377.595 291.384 377.135 291.864 376.795C292.364 376.455 292.924 376.205 293.544 376.045C294.184 375.865 294.824 375.725 295.464 375.625C296.104 375.525 296.734 375.445 297.354 375.385C297.974 375.325 298.524 375.235 299.004 375.115C299.484 374.995 299.864 374.825 300.144 374.605C300.424 374.365 300.554 374.025 300.534 373.585C300.534 373.125 300.454 372.765 300.294 372.505C300.154 372.225 299.954 372.015 299.694 371.875C299.454 371.715 299.164 371.615 298.824 371.575C298.504 371.515 298.154 371.485 297.774 371.485C296.934 371.485 296.274 371.665 295.794 372.025C295.314 372.385 295.034 372.985 294.954 373.825H290.694ZM300.534 376.975C300.354 377.135 300.124 377.265 299.844 377.365C299.584 377.445 299.294 377.515 298.974 377.575C298.674 377.635 298.354 377.685 298.014 377.725C297.674 377.765 297.334 377.815 296.994 377.875C296.674 377.935 296.354 378.015 296.034 378.115C295.734 378.215 295.464 378.355 295.224 378.535C295.004 378.695 294.824 378.905 294.684 379.165C294.544 379.425 294.474 379.755 294.474 380.155C294.474 380.535 294.544 380.855 294.684 381.115C294.824 381.375 295.014 381.585 295.254 381.745C295.494 381.885 295.774 381.985 296.094 382.045C296.414 382.105 296.744 382.135 297.084 382.135C297.924 382.135 298.574 381.995 299.034 381.715C299.494 381.435 299.834 381.105 300.054 380.725C300.274 380.325 300.404 379.925 300.444 379.525C300.504 379.125 300.534 378.805 300.534 378.565V376.975ZM313.5 369.055H316.62V371.905H313.5V379.585C313.5 380.305 313.62 380.785 313.86 381.025C314.1 381.265 314.58 381.385 315.3 381.385C315.54 381.385 315.77 381.375 315.99 381.355C316.21 381.335 316.42 381.305 316.62 381.265V384.565C316.26 384.625 315.86 384.665 315.42 384.685C314.98 384.705 314.55 384.715 314.13 384.715C313.47 384.715 312.84 384.665 312.24 384.565C311.66 384.485 311.14 384.315 310.68 384.055C310.24 383.795 309.89 383.425 309.63 382.945C309.37 382.465 309.24 381.835 309.24 381.055V371.905H306.66V369.055H309.24V364.405H313.5V369.055ZM329.087 375.145C328.887 374.065 328.527 373.245 328.007 372.685C327.507 372.125 326.737 371.845 325.697 371.845C325.017 371.845 324.447 371.965 323.987 372.205C323.547 372.425 323.187 372.705 322.907 373.045C322.647 373.385 322.457 373.745 322.337 374.125C322.237 374.505 322.177 374.845 322.157 375.145H329.087ZM322.157 377.845C322.217 379.225 322.567 380.225 323.207 380.845C323.847 381.465 324.767 381.775 325.967 381.775C326.827 381.775 327.567 381.565 328.187 381.145C328.807 380.705 329.187 380.245 329.327 379.765H333.077C332.477 381.625 331.557 382.955 330.317 383.755C329.077 384.555 327.577 384.955 325.817 384.955C324.597 384.955 323.497 384.765 322.517 384.385C321.537 383.985 320.707 383.425 320.027 382.705C319.347 381.985 318.817 381.125 318.437 380.125C318.077 379.125 317.897 378.025 317.897 376.825C317.897 375.665 318.087 374.585 318.467 373.585C318.847 372.585 319.387 371.725 320.087 371.005C320.787 370.265 321.617 369.685 322.577 369.265C323.557 368.845 324.637 368.635 325.817 368.635C327.137 368.635 328.287 368.895 329.267 369.415C330.247 369.915 331.047 370.595 331.667 371.455C332.307 372.315 332.767 373.295 333.047 374.395C333.327 375.495 333.427 376.645 333.347 377.845H322.157ZM339.174 379.525C339.174 379.985 339.264 380.385 339.444 380.725C339.644 381.045 339.894 381.315 340.194 381.535C340.494 381.735 340.834 381.885 341.214 381.985C341.614 382.085 342.024 382.135 342.444 382.135C342.744 382.135 343.054 382.105 343.374 382.045C343.714 381.965 344.014 381.855 344.274 381.715C344.554 381.555 344.784 381.355 344.964 381.115C345.144 380.855 345.234 380.535 345.234 380.155C345.234 379.515 344.804 379.035 343.944 378.715C343.104 378.395 341.924 378.075 340.404 377.755C339.784 377.615 339.174 377.455 338.574 377.275C337.994 377.075 337.474 376.825 337.014 376.525C336.554 376.205 336.184 375.815 335.904 375.355C335.624 374.875 335.484 374.295 335.484 373.615C335.484 372.615 335.674 371.795 336.054 371.155C336.454 370.515 336.974 370.015 337.614 369.655C338.254 369.275 338.974 369.015 339.774 368.875C340.574 368.715 341.394 368.635 342.234 368.635C343.074 368.635 343.884 368.715 344.664 368.875C345.464 369.035 346.174 369.305 346.794 369.685C347.414 370.065 347.924 370.575 348.324 371.215C348.744 371.835 348.994 372.625 349.074 373.585H345.024C344.964 372.765 344.654 372.215 344.094 371.935C343.534 371.635 342.874 371.485 342.114 371.485C341.874 371.485 341.614 371.505 341.334 371.545C341.054 371.565 340.794 371.625 340.554 371.725C340.334 371.825 340.144 371.975 339.984 372.175C339.824 372.355 339.744 372.605 339.744 372.925C339.744 373.305 339.884 373.615 340.164 373.855C340.444 374.095 340.804 374.295 341.244 374.455C341.704 374.595 342.224 374.725 342.804 374.845C343.384 374.965 343.974 375.095 344.574 375.235C345.194 375.375 345.794 375.545 346.374 375.745C346.974 375.945 347.504 376.215 347.964 376.555C348.424 376.875 348.794 377.285 349.074 377.785C349.354 378.265 349.494 378.865 349.494 379.585C349.494 380.605 349.284 381.465 348.864 382.165C348.464 382.845 347.934 383.395 347.274 383.815C346.614 384.235 345.854 384.525 344.994 384.685C344.154 384.865 343.294 384.955 342.414 384.955C341.514 384.955 340.634 384.865 339.774 384.685C338.914 384.505 338.144 384.205 337.464 383.785C336.804 383.365 336.254 382.815 335.814 382.135C335.394 381.435 335.164 380.565 335.124 379.525H339.174ZM352.197 379.945H356.907V384.565H352.197V379.945ZM356.757 368.905L355.587 378.145H353.457L352.317 368.905V363.145H356.757V368.905Z" fill="white"/>
</svg>
